<svg width="1161" height="160" viewBox="0 0 1161 160" fill="none" xmlns="http://www.w3.org/2000/svg">
<g clip-path="url(#clip0_2090_4592)">
<path d="M181.774 31.0703H191.467V40.7632H181.774V31.0703ZM191.467 31.0703H201.159V40.7632H191.467V31.0703ZM210.852 31.0703H220.545V40.7632H210.852V31.0703ZM220.545 31.0703H230.238V40.7632H220.545V31.0703ZM220.545 40.7632H230.238V50.4562H220.545V40.7632ZM220.545 50.4562H230.238V60.1492H220.545V50.4562ZM230.238 50.4562H239.931V60.1492H230.238V50.4562ZM230.238 40.7632H239.931V50.4562H230.238V40.7632ZM210.852 40.7632H220.545V50.4562H210.852V40.7632ZM191.467 40.7632H201.159V50.4562H191.467V40.7632ZM181.774 40.7632H191.467V50.4562H181.774V40.7632ZM172.081 40.7632H181.774V50.4562H172.081V40.7632ZM172.081 50.4562H181.774V60.1492H172.081V50.4562ZM181.774 50.4562H191.467V60.1492H181.774V50.4562ZM181.774 60.1492H191.467V69.8422H181.774V60.1492ZM172.081 60.1492H181.774V69.8422H172.081V60.1492ZM172.081 79.5351H181.774V89.2281H172.081V79.5351ZM181.774 79.5351H191.467V89.2281H181.774V79.5351ZM181.774 69.8422H191.467V79.5351H181.774V69.8422ZM191.467 69.8422H201.159V79.5351H191.467V69.8422ZM191.467 79.5351H201.159V89.2281H191.467V79.5351ZM210.852 79.5351H220.545V89.2281H210.852V79.5351ZM210.852 69.8422H220.545V79.5351H210.852V69.8422ZM220.545 69.8422H230.238V79.5351H220.545V69.8422ZM220.545 79.5351H230.238V89.2281H220.545V79.5351ZM230.238 79.5351H239.931V89.2281H230.238V79.5351ZM230.238 89.2281H239.931V98.9211H230.238V89.2281ZM230.238 98.9211H239.931V108.614H230.238V98.9211ZM220.545 98.9211H230.238V108.614H220.545V98.9211ZM220.545 89.2281H230.238V98.9211H220.545V89.2281ZM230.238 108.614H239.931V118.307H230.238V108.614ZM220.545 108.614H230.238V118.307H220.545V108.614ZM220.545 118.307H230.238V128H220.545V118.307ZM210.852 118.307H220.545V128H210.852V118.307ZM210.852 108.614H220.545V118.307H210.852V108.614ZM191.467 108.614H201.159V118.307H191.467V108.614ZM191.467 118.307H201.159V128H191.467V118.307ZM181.774 118.307H191.467V128H181.774V118.307ZM181.774 108.614H191.467V118.307H181.774V108.614ZM172.081 108.614H181.774V118.307H172.081V108.614ZM172.081 98.9211H181.774V108.614H172.081V98.9211ZM172.081 89.2281H181.774V98.9211H172.081V89.2281ZM181.774 89.2281H191.467V98.9211H181.774V89.2281ZM181.774 98.9211H191.467V108.614H181.774V98.9211ZM230.238 60.1492H239.931V69.8422H230.238V60.1492ZM220.545 60.1492H230.238V69.8422H220.545V60.1492ZM201.159 31.0703H210.852V40.7632H201.159V31.0703ZM201.159 40.7632H210.852V50.4562H201.159V40.7632ZM201.159 69.8422H210.852V79.5351H201.159V69.8422ZM201.159 79.5351H210.852V89.2281H201.159V79.5351ZM201.159 108.614H210.852V118.307H201.159V108.614ZM201.159 118.307H210.852V128H201.159V118.307ZM249.65 31.0703H259.343V40.7632H249.65V31.0703ZM259.343 31.0703H269.036V40.7632H259.343V31.0703ZM259.343 40.7632H269.036V50.4562H259.343V40.7632ZM259.343 50.4562H269.036V60.1492H259.343V50.4562ZM259.343 60.1492H269.036V69.8422H259.343V60.1492ZM259.343 69.8422H269.036V79.5351H259.343V69.8422ZM259.343 79.5351H269.036V89.2281H259.343V79.5351ZM249.65 79.5351H259.343V89.2281H249.65V79.5351ZM249.65 89.2281H259.343V98.9211H249.65V89.2281ZM249.65 98.9211H259.343V108.614H249.65V98.9211ZM249.65 108.614H259.343V118.307H249.65V108.614ZM249.65 118.307H259.343V128H249.65V118.307ZM259.343 118.307H269.036V128H259.343V118.307ZM259.343 108.614H269.036V118.307H259.343V108.614ZM259.343 98.9211H269.036V108.614H259.343V98.9211ZM259.343 89.2281H269.036V98.9211H259.343V89.2281ZM249.65 69.8422H259.343V79.5351H249.65V69.8422ZM249.65 60.1492H259.343V69.8422H249.65V60.1492ZM249.65 50.4562H259.343V60.1492H249.65V50.4562ZM249.65 40.7632H259.343V50.4562H249.65V40.7632ZM336.962 128H327.269V118.307H336.962V128ZM336.962 118.307H327.269V108.614H336.962V118.307ZM327.269 118.307H317.576V108.614H327.269V118.307ZM317.576 128H307.883V118.307H317.576V128ZM307.883 128H298.19V118.307H307.883V128ZM298.19 128H288.497V118.307H298.19V128ZM298.19 118.307H288.497V108.614H298.19V118.307ZM307.883 118.307H298.19V108.614H307.883V118.307ZM288.497 118.307H278.804V108.614H288.497V118.307ZM288.497 108.614H278.804V98.9211H288.497V108.614ZM288.497 69.8422H278.804V60.1492H288.497V69.8422ZM298.19 69.8422H288.497V60.1492H298.19V69.8422ZM298.19 108.614H288.497V98.9211H298.19V108.614ZM307.883 69.8422H298.19V60.1492H307.883V69.8422ZM298.19 60.1492H288.497V50.4562H298.19V60.1492ZM307.883 60.1492H298.19V50.4562H307.883V60.1492ZM317.576 60.1492H307.883V50.4562H317.576V60.1492ZM327.269 60.1492H317.576V50.4562H327.269V60.1492ZM336.962 60.1492H327.269V50.4562H336.962V60.1492ZM336.962 69.8422H327.269V60.1492H336.962V69.8422ZM327.269 69.8422H317.576V60.1492H327.269V69.8422ZM336.962 79.5351H327.269V69.8422H336.962V79.5351ZM346.655 69.8422H336.962V60.1492H346.655V69.8422ZM346.655 79.5351H336.962V69.8422H346.655V79.5351ZM346.655 89.2281H336.962V79.5351H346.655V89.2281ZM346.655 98.9211H336.962V89.2281H346.655V98.9211ZM346.655 108.614H336.962V98.9211H346.655V108.614ZM346.655 118.307H336.962V108.614H346.655V118.307ZM336.962 108.614H327.269V98.9211H336.962V108.614ZM336.962 98.9211H327.269V89.2281H336.962V98.9211ZM336.962 89.2281H327.269V79.5351H336.962V89.2281ZM317.576 69.8422H307.883V60.1492H317.576V69.8422ZM317.576 118.307H307.883V108.614H317.576V118.307ZM336.962 118.307H346.655V128H336.962V118.307ZM317.576 79.5351H327.269V89.2281H317.576V79.5351ZM307.883 79.5351H317.576V89.2281H307.883V79.5351ZM298.19 79.5351H307.883V89.2281H298.19V79.5351ZM288.497 79.5351H298.19V89.2281H288.497V79.5351ZM278.804 89.2281H288.497V98.9211H278.804V89.2281ZM288.497 89.2281H298.19V98.9211H288.497V89.2281ZM317.576 89.2281H327.269V98.9211H317.576V89.2281ZM307.883 89.2281H317.576V98.9211H307.883V89.2281ZM298.19 89.2281H307.883V98.9211H298.19V89.2281ZM356.373 60.1492H366.066V69.8422H356.373V60.1492ZM356.373 50.4562H366.066V60.1492H356.373V50.4562ZM366.066 50.4562H375.759V60.1492H366.066V50.4562ZM366.066 60.1492H375.759V69.8422H366.066V60.1492ZM366.066 69.8422H375.759V79.5351H366.066V69.8422ZM366.066 79.5351H375.759V89.2281H366.066V79.5351ZM366.066 89.2281H375.759V98.9211H366.066V89.2281ZM356.373 89.2281H366.066V98.9211H356.373V89.2281ZM356.373 79.5351H366.066V89.2281H356.373V79.5351ZM356.373 69.8422H366.066V79.5351H356.373V69.8422ZM356.373 98.9211H366.066V108.614H356.373V98.9211ZM366.066 98.9211H375.759V108.614H366.066V98.9211ZM366.066 108.614H375.759V118.307H366.066V108.614ZM366.066 118.307H375.759V128H366.066V118.307ZM356.373 118.307H366.066V128H356.373V118.307ZM356.373 108.614H366.066V118.307H356.373V108.614ZM404.838 118.307H414.531V128H404.838V118.307ZM414.531 108.614H424.224V118.307H414.531V108.614ZM414.531 98.9211H424.224V108.614H414.531V98.9211ZM414.531 89.2281H424.224V98.9211H414.531V89.2281ZM414.531 79.5351H424.224V89.2281H414.531V79.5351ZM414.531 69.8422H424.224V79.5351H414.531V69.8422ZM414.531 60.1492H424.224V69.8422H414.531V60.1492ZM404.838 79.5351H414.531V89.2281H404.838V79.5351ZM404.838 89.2281H414.531V98.9211H404.838V89.2281ZM404.838 98.9211H414.531V108.614H404.838V98.9211ZM404.838 108.614H414.531V118.307H404.838V108.614ZM404.838 69.8422H414.531V79.5351H404.838V69.8422ZM375.759 60.1492H385.452V69.8422H375.759V60.1492ZM385.452 60.1492H395.145V69.8422H385.452V60.1492ZM395.145 60.1492H404.838V69.8422H395.145V60.1492ZM395.145 50.4562H404.838V60.1492H395.145V50.4562ZM404.838 50.4562H414.531V60.1492H404.838V50.4562ZM404.838 60.1492H414.531V69.8422H404.838V60.1492ZM385.452 50.4562H395.145V60.1492H385.452V50.4562ZM356.373 31.0703H366.066V40.7632H356.373V31.0703ZM366.066 31.0703H375.759V40.7632H366.066V31.0703ZM366.066 40.7632H375.759V50.4562H366.066V40.7632ZM356.373 40.7632H366.066V50.4562H356.373V40.7632ZM375.759 118.307H385.452V128H375.759V118.307ZM385.452 118.307H395.145V128H385.452V118.307ZM395.145 118.307H404.838V128H395.145V118.307ZM395.145 108.614H404.838V118.307H395.145V108.614ZM385.452 108.614H395.145V118.307H385.452V108.614ZM375.759 108.614H385.452V118.307H375.759V108.614ZM433.942 60.1492H443.635V69.8422H433.942V60.1492ZM443.635 69.8422H453.328V79.5351H443.635V69.8422ZM433.942 69.8422H443.635V79.5351H433.942V69.8422ZM433.942 79.5351H443.635V89.2281H433.942V79.5351ZM443.635 79.5351H453.328V89.2281H443.635V79.5351ZM443.635 89.2281H453.328V98.9211H443.635V89.2281ZM453.328 89.2281H463.021V98.9211H453.328V89.2281ZM463.021 89.2281H472.714V98.9211H463.021V89.2281ZM472.714 79.5351H482.407V89.2281H472.714V79.5351ZM463.021 79.5351H472.714V89.2281H463.021V79.5351ZM453.328 79.5351H463.021V89.2281H453.328V79.5351ZM472.714 89.2281H482.407V98.9211H472.714V89.2281ZM482.407 89.2281H492.1V98.9211H482.407V89.2281ZM482.407 98.9211H492.1V108.614H482.407V98.9211ZM472.714 98.9211H482.407V108.614H472.714V98.9211ZM472.714 108.614H482.407V118.307H472.714V108.614ZM482.407 108.614H492.1V118.307H482.407V108.614ZM472.714 118.307H482.407V128H472.714V118.307ZM463.021 108.614H472.714V118.307H463.021V108.614ZM453.328 108.614H463.021V118.307H453.328V108.614ZM443.635 108.614H453.328V118.307H443.635V108.614ZM433.942 108.614H443.635V118.307H433.942V108.614ZM443.635 118.307H453.328V128H443.635V118.307ZM453.328 118.307H463.021V128H453.328V118.307ZM463.021 118.307H472.714V128H463.021V118.307ZM482.407 60.1492H492.1V69.8422H482.407V60.1492ZM472.714 60.1492H482.407V69.8422H472.714V60.1492ZM472.714 50.4562H482.407V60.1492H472.714V50.4562ZM463.021 50.4562H472.714V60.1492H463.021V50.4562ZM453.328 50.4562H463.021V60.1492H453.328V50.4562ZM443.635 50.4562H453.328V60.1492H443.635V50.4562ZM443.635 60.1492H453.328V69.8422H443.635V60.1492ZM453.328 60.1492H463.021V69.8422H453.328V60.1492ZM463.021 60.1492H472.714V69.8422H463.021V60.1492ZM540.489 69.8422H550.182V79.5351H540.489V69.8422ZM550.182 69.8422H559.875V79.5351H550.182V69.8422ZM559.875 69.8422H569.568V79.5351H559.875V69.8422ZM569.568 69.8422H579.261V79.5351H569.568V69.8422ZM579.261 69.8422H588.954V79.5351H579.261V69.8422ZM588.954 69.8422H598.647V79.5351H588.954V69.8422ZM588.954 79.5351H598.647V89.2281H588.954V79.5351ZM579.261 79.5351H588.954V89.2281H579.261V79.5351ZM569.568 79.5351H579.261V89.2281H569.568V79.5351ZM559.875 79.5351H569.568V89.2281H559.875V79.5351ZM550.182 79.5351H559.875V89.2281H550.182V79.5351ZM540.489 79.5351H550.182V89.2281H540.489V79.5351ZM647.036 31.0703H656.729V40.7632H647.036V31.0703ZM656.729 31.0703H666.422V40.7632H656.729V31.0703ZM666.422 31.0703H676.115V40.7632H666.422V31.0703ZM676.115 31.0703H685.808V40.7632H676.115V31.0703ZM685.808 31.0703H695.501V40.7632H685.808V31.0703ZM695.501 31.0703H705.194V40.7632H695.501V31.0703ZM695.501 40.7632H705.194V50.4562H695.501V40.7632ZM685.808 40.7632H695.501V50.4562H685.808V40.7632ZM676.115 40.7632H685.808V50.4562H676.115V40.7632ZM666.422 40.7632H676.115V50.4562H666.422V40.7632ZM656.729 40.7632H666.422V50.4562H656.729V40.7632ZM647.036 40.7632H656.729V50.4562H647.036V40.7632ZM666.422 50.4562H676.115V60.1492H666.422V50.4562ZM666.422 60.1492H676.115V69.8422H666.422V60.1492ZM666.422 69.8422H676.115V79.5351H666.422V69.8422ZM666.422 79.5351H676.115V89.2281H666.422V79.5351ZM666.422 89.2281H676.115V98.9211H666.422V89.2281ZM666.422 98.9211H676.115V108.614H666.422V98.9211ZM676.115 89.2281H685.808V98.9211H676.115V89.2281ZM676.115 79.5351H685.808V89.2281H676.115V79.5351ZM676.115 69.8422H685.808V79.5351H676.115V69.8422ZM676.115 60.1492H685.808V69.8422H676.115V60.1492ZM676.115 50.4562H685.808V60.1492H676.115V50.4562ZM676.115 98.9211H685.808V108.614H676.115V98.9211ZM676.115 108.614H685.808V118.307H676.115V108.614ZM676.115 118.307H685.808V128H676.115V118.307ZM666.422 118.307H676.115V128H666.422V118.307ZM666.422 108.614H676.115V118.307H666.422V108.614ZM734.273 50.4562H743.966V60.1492H734.273V50.4562ZM724.58 50.4562H734.273V60.1492H724.58V50.4562ZM724.58 60.1492H734.273V69.8422H724.58V60.1492ZM734.273 60.1492H743.966V69.8422H734.273V60.1492ZM743.966 50.4562H753.659V60.1492H743.966V50.4562ZM753.659 50.4562H763.352V60.1492H753.659V50.4562ZM763.352 50.4562H773.045V60.1492H763.352V50.4562ZM763.352 60.1492H773.045V69.8422H763.352V60.1492ZM753.659 60.1492H763.352V69.8422H753.659V60.1492ZM773.045 60.1492H782.738V69.8422H773.045V60.1492ZM773.045 69.8422H782.738V79.5351H773.045V69.8422ZM773.045 108.614H782.738V118.307H773.045V108.614ZM763.352 108.614H773.045V118.307H763.352V108.614ZM763.352 69.8422H773.045V79.5351H763.352V69.8422ZM753.659 108.614H763.352V118.307H753.659V108.614ZM763.352 118.307H773.045V128H763.352V118.307ZM753.659 118.307H763.352V128H753.659V118.307ZM743.966 118.307H753.659V128H743.966V118.307ZM734.273 118.307H743.966V128H734.273V118.307ZM724.58 118.307H734.273V128H724.58V118.307ZM724.58 108.614H734.273V118.307H724.58V108.614ZM734.273 108.614H743.966V118.307H734.273V108.614ZM724.58 98.9211H734.273V108.614H724.58V98.9211ZM714.887 108.614H724.58V118.307H714.887V108.614ZM714.887 98.9211H724.58V108.614H714.887V98.9211ZM714.887 89.2281H724.58V98.9211H714.887V89.2281ZM714.887 79.5351H724.58V89.2281H714.887V79.5351ZM714.887 69.8422H724.58V79.5351H714.887V69.8422ZM714.887 60.1492H724.58V69.8422H714.887V60.1492ZM724.58 69.8422H734.273V79.5351H724.58V69.8422ZM724.58 79.5351H734.273V89.2281H724.58V79.5351ZM724.58 89.2281H734.273V98.9211H724.58V89.2281ZM743.966 108.614H753.659V118.307H743.966V108.614ZM743.966 60.1492H753.659V69.8422H743.966V60.1492ZM763.352 79.5351H773.045V89.2281H763.352V79.5351ZM773.045 79.5351H782.738V89.2281H773.045V79.5351ZM734.273 89.2281H743.966V98.9211H734.273V89.2281ZM743.966 89.2281H753.659V98.9211H743.966V89.2281ZM753.659 89.2281H763.352V98.9211H753.659V89.2281ZM763.352 89.2281H773.045V98.9211H763.352V89.2281ZM773.045 89.2281H782.738V98.9211H773.045V89.2281ZM753.659 79.5351H763.352V89.2281H753.659V79.5351ZM743.966 79.5351H753.659V89.2281H743.966V79.5351ZM734.273 79.5351H743.966V89.2281H734.273V79.5351ZM792.456 60.1492H802.149V69.8422H792.456V60.1492ZM802.149 69.8422H811.842V79.5351H802.149V69.8422ZM792.456 69.8422H802.149V79.5351H792.456V69.8422ZM792.456 79.5351H802.149V89.2281H792.456V79.5351ZM802.149 79.5351H811.842V89.2281H802.149V79.5351ZM802.149 89.2281H811.842V98.9211H802.149V89.2281ZM811.842 89.2281H821.535V98.9211H811.842V89.2281ZM821.535 89.2281H831.228V98.9211H821.535V89.2281ZM831.228 79.5351H840.921V89.2281H831.228V79.5351ZM821.535 79.5351H831.228V89.2281H821.535V79.5351ZM811.842 79.5351H821.535V89.2281H811.842V79.5351ZM831.228 89.2281H840.921V98.9211H831.228V89.2281ZM840.921 89.2281H850.614V98.9211H840.921V89.2281ZM840.921 98.9211H850.614V108.614H840.921V98.9211ZM831.228 98.9211H840.921V108.614H831.228V98.9211ZM831.228 108.614H840.921V118.307H831.228V108.614ZM840.921 108.614H850.614V118.307H840.921V108.614ZM831.228 118.307H840.921V128H831.228V118.307ZM821.535 108.614H831.228V118.307H821.535V108.614ZM811.842 108.614H821.535V118.307H811.842V108.614ZM802.149 108.614H811.842V118.307H802.149V108.614ZM792.456 108.614H802.149V118.307H792.456V108.614ZM802.149 118.307H811.842V128H802.149V118.307ZM811.842 118.307H821.535V128H811.842V118.307ZM821.535 118.307H831.228V128H821.535V118.307ZM840.921 60.1492H850.614V69.8422H840.921V60.1492ZM831.228 60.1492H840.921V69.8422H831.228V60.1492ZM831.228 50.4562H840.921V60.1492H831.228V50.4562ZM821.535 50.4562H831.228V60.1492H821.535V50.4562ZM811.842 50.4562H821.535V60.1492H811.842V50.4562ZM802.149 50.4562H811.842V60.1492H802.149V50.4562ZM802.149 60.1492H811.842V69.8422H802.149V60.1492ZM811.842 60.1492H821.535V69.8422H811.842V60.1492ZM821.535 60.1492H831.228V69.8422H821.535V60.1492ZM899.079 108.614H908.772V118.307H899.079V108.614ZM899.079 118.307H908.772V128H899.079V118.307ZM889.386 118.307H899.079V128H889.386V118.307ZM889.386 108.614H899.079V118.307H889.386V108.614ZM879.693 118.307H889.386V128H879.693V118.307ZM879.693 108.614H889.386V118.307H879.693V108.614ZM870 108.614H879.693V118.307H870V108.614ZM870 98.9211H879.693V108.614H870V98.9211ZM870 89.2281H879.693V98.9211H870V89.2281ZM870 79.5351H879.693V89.2281H870V79.5351ZM870 69.8422H879.693V79.5351H870V69.8422ZM870 60.1492H879.693V69.8422H870V60.1492ZM879.693 89.2281H889.386V98.9211H879.693V89.2281ZM879.693 98.9211H889.386V108.614H879.693V98.9211ZM879.693 79.5351H889.386V89.2281H879.693V79.5351ZM879.693 69.8422H889.386V79.5351H879.693V69.8422ZM879.693 31.0703H889.386V40.7632H879.693V31.0703ZM879.693 40.7632H889.386V50.4562H879.693V40.7632ZM879.693 50.4562H889.386V60.1492H879.693V50.4562ZM879.693 60.1492H889.386V69.8422H879.693V60.1492ZM870 50.4562H879.693V60.1492H870V50.4562ZM860.307 60.1492H870V69.8422H860.307V60.1492ZM889.386 60.1492H899.079V69.8422H889.386V60.1492ZM899.079 60.1492H908.772V69.8422H899.079V60.1492ZM870 40.7632H879.693V50.4562H870V40.7632ZM860.307 69.8422H870V79.5351H860.307V69.8422ZM889.386 69.8422H899.079V79.5351H889.386V69.8422ZM899.079 69.8422H908.772V79.5351H899.079V69.8422ZM918.439 31.0703H928.132V40.7632H918.439V31.0703ZM928.132 31.0703H937.825V40.7632H928.132V31.0703ZM928.132 40.7632H937.825V50.4562H928.132V40.7632ZM928.132 50.4562H937.825V60.1492H928.132V50.4562ZM928.132 60.1492H937.825V69.8422H928.132V60.1492ZM928.132 69.8422H937.825V79.5351H928.132V69.8422ZM928.132 79.5351H937.825V89.2281H928.132V79.5351ZM918.439 79.5351H928.132V89.2281H918.439V79.5351ZM918.439 89.2281H928.132V98.9211H918.439V89.2281ZM918.439 98.9211H928.132V108.614H918.439V98.9211ZM918.439 108.614H928.132V118.307H918.439V108.614ZM918.439 118.307H928.132V128H918.439V118.307ZM928.132 118.307H937.825V128H928.132V118.307ZM928.132 108.614H937.825V118.307H928.132V108.614ZM928.132 98.9211H937.825V108.614H928.132V98.9211ZM928.132 89.2281H937.825V98.9211H928.132V89.2281ZM918.439 69.8422H928.132V79.5351H918.439V69.8422ZM918.439 60.1492H928.132V69.8422H918.439V60.1492ZM918.439 50.4562H928.132V60.1492H918.439V50.4562ZM918.439 40.7632H928.132V50.4562H918.439V40.7632ZM1005.75 128H996.059V118.307H1005.75V128ZM1005.75 118.307H996.059V108.614H1005.75V118.307ZM996.059 118.307H986.366V108.614H996.059V118.307ZM986.366 128H976.673V118.307H986.366V128ZM976.673 128H966.98V118.307H976.673V128ZM966.98 128H957.287V118.307H966.98V128ZM966.98 118.307H957.287V108.614H966.98V118.307ZM976.673 118.307H966.98V108.614H976.673V118.307ZM957.287 118.307H947.594V108.614H957.287V118.307ZM957.287 108.614H947.594V98.9211H957.287V108.614ZM957.287 69.8422H947.594V60.1492H957.287V69.8422ZM966.98 69.8422H957.287V60.1492H966.98V69.8422ZM966.98 108.614H957.287V98.9211H966.98V108.614ZM976.673 69.8422H966.98V60.1492H976.673V69.8422ZM966.98 60.1492H957.287V50.4562H966.98V60.1492ZM976.673 60.1492H966.98V50.4562H976.673V60.1492ZM986.366 60.1492H976.673V50.4562H986.366V60.1492ZM996.059 60.1492H986.366V50.4562H996.059V60.1492ZM1005.75 60.1492H996.059V50.4562H1005.75V60.1492ZM1005.75 69.8422H996.059V60.1492H1005.75V69.8422ZM996.059 69.8422H986.366V60.1492H996.059V69.8422ZM1005.75 79.5351H996.059V69.8422H1005.75V79.5351ZM1015.44 69.8422H1005.75V60.1492H1015.44V69.8422ZM1015.44 79.5351H1005.75V69.8422H1015.44V79.5351ZM1015.44 89.2281H1005.75V79.5351H1015.44V89.2281ZM1015.44 98.9211H1005.75V89.2281H1015.44V98.9211ZM1015.44 108.614H1005.75V98.9211H1015.44V108.614ZM1015.44 118.307H1005.75V108.614H1015.44V118.307ZM1005.75 108.614H996.059V98.9211H1005.75V108.614ZM1005.75 98.9211H996.059V89.2281H1005.75V98.9211ZM1005.75 89.2281H996.059V79.5351H1005.75V89.2281ZM986.366 69.8422H976.673V60.1492H986.366V69.8422ZM986.366 118.307H976.673V108.614H986.366V118.307ZM1005.75 118.307H1015.44V128H1005.75V118.307ZM986.366 79.5351H996.059V89.2281H986.366V79.5351ZM976.673 79.5351H986.366V89.2281H976.673V79.5351ZM966.98 79.5351H976.673V89.2281H966.98V79.5351ZM957.287 79.5351H966.98V89.2281H957.287V79.5351ZM947.594 89.2281H957.287V98.9211H947.594V89.2281ZM957.287 89.2281H966.98V98.9211H957.287V89.2281ZM986.366 89.2281H996.059V98.9211H986.366V89.2281ZM976.673 89.2281H986.366V98.9211H976.673V89.2281ZM966.98 89.2281H976.673V98.9211H966.98V89.2281ZM1025.16 60.1492H1034.86V69.8422H1025.16V60.1492ZM1025.16 50.4562H1034.86V60.1492H1025.16V50.4562ZM1034.86 50.4562H1044.55V60.1492H1034.86V50.4562ZM1034.86 60.1492H1044.55V69.8422H1034.86V60.1492ZM1034.86 69.8422H1044.55V79.5351H1034.86V69.8422ZM1034.86 79.5351H1044.55V89.2281H1034.86V79.5351ZM1034.86 89.2281H1044.55V98.9211H1034.86V89.2281ZM1025.16 89.2281H1034.86V98.9211H1025.16V89.2281ZM1025.16 79.5351H1034.86V89.2281H1025.16V79.5351ZM1025.16 69.8422H1034.86V79.5351H1025.16V69.8422ZM1025.16 98.9211H1034.86V108.614H1025.16V98.9211ZM1034.86 98.9211H1044.55V108.614H1034.86V98.9211ZM1034.86 108.614H1044.55V118.307H1034.86V108.614ZM1034.86 118.307H1044.55V128H1034.86V118.307ZM1025.16 118.307H1034.86V128H1025.16V118.307ZM1025.16 108.614H1034.86V118.307H1025.16V108.614ZM1073.63 118.307H1083.32V128H1073.63V118.307ZM1083.32 108.614H1093.01V118.307H1083.32V108.614ZM1083.32 98.9211H1093.01V108.614H1083.32V98.9211ZM1083.32 89.2281H1093.01V98.9211H1083.32V89.2281ZM1083.32 79.5351H1093.01V89.2281H1083.32V79.5351ZM1083.32 69.8422H1093.01V79.5351H1083.32V69.8422ZM1083.32 60.1492H1093.01V69.8422H1083.32V60.1492ZM1073.63 79.5351H1083.32V89.2281H1073.63V79.5351ZM1073.63 89.2281H1083.32V98.9211H1073.63V89.2281ZM1073.63 98.9211H1083.32V108.614H1073.63V98.9211ZM1073.63 108.614H1083.32V118.307H1073.63V108.614ZM1073.63 69.8422H1083.32V79.5351H1073.63V69.8422ZM1044.55 60.1492H1054.24V69.8422H1044.55V60.1492ZM1054.24 60.1492H1063.93V69.8422H1054.24V60.1492ZM1063.93 60.1492H1073.63V69.8422H1063.93V60.1492ZM1063.93 50.4562H1073.63V60.1492H1063.93V50.4562ZM1073.63 50.4562H1083.32V60.1492H1073.63V50.4562ZM1073.63 60.1492H1083.32V69.8422H1073.63V60.1492ZM1054.24 50.4562H1063.93V60.1492H1054.24V50.4562ZM1025.16 31.0703H1034.86V40.7632H1025.16V31.0703ZM1034.86 31.0703H1044.55V40.7632H1034.86V31.0703ZM1034.86 40.7632H1044.55V50.4562H1034.86V40.7632ZM1025.16 40.7632H1034.86V50.4562H1025.16V40.7632ZM1044.55 118.307H1054.24V128H1044.55V118.307ZM1054.24 118.307H1063.93V128H1054.24V118.307ZM1063.93 118.307H1073.63V128H1063.93V118.307ZM1063.93 108.614H1073.63V118.307H1063.93V108.614ZM1054.24 108.614H1063.93V118.307H1054.24V108.614ZM1044.55 108.614H1054.24V118.307H1044.55V108.614ZM1102.73 60.1492H1112.43V69.8422H1102.73V60.1492ZM1112.43 69.8422H1122.12V79.5351H1112.43V69.8422ZM1102.73 69.8422H1112.43V79.5351H1102.73V69.8422ZM1102.73 79.5351H1112.43V89.2281H1102.73V79.5351ZM1112.43 79.5351H1122.12V89.2281H1112.43V79.5351ZM1112.43 89.2281H1122.12V98.9211H1112.43V89.2281ZM1122.12 89.2281H1131.81V98.9211H1122.12V89.2281ZM1131.81 89.2281H1141.5V98.9211H1131.81V89.2281ZM1141.5 79.5351H1151.2V89.2281H1141.5V79.5351ZM1131.81 79.5351H1141.5V89.2281H1131.81V79.5351ZM1122.12 79.5351H1131.81V89.2281H1122.12V79.5351ZM1141.5 89.2281H1151.2V98.9211H1141.5V89.2281ZM1151.2 89.2281H1160.89V98.9211H1151.2V89.2281ZM1151.2 98.9211H1160.89V108.614H1151.2V98.9211ZM1141.5 98.9211H1151.2V108.614H1141.5V98.9211ZM1141.5 108.614H1151.2V118.307H1141.5V108.614ZM1151.2 108.614H1160.89V118.307H1151.2V108.614ZM1141.5 118.307H1151.2V128H1141.5V118.307ZM1131.81 108.614H1141.5V118.307H1131.81V108.614ZM1122.12 108.614H1131.81V118.307H1122.12V108.614ZM1112.43 108.614H1122.12V118.307H1112.43V108.614ZM1102.73 108.614H1112.43V118.307H1102.73V108.614ZM1112.43 118.307H1122.12V128H1112.43V118.307ZM1122.12 118.307H1131.81V128H1122.12V118.307ZM1131.81 118.307H1141.5V128H1131.81V118.307ZM1151.2 60.1492H1160.89V69.8422H1151.2V60.1492ZM1141.5 60.1492H1151.2V69.8422H1141.5V60.1492ZM1141.5 50.4562H1151.2V60.1492H1141.5V50.4562ZM1131.81 50.4562H1141.5V60.1492H1131.81V50.4562ZM1122.12 50.4562H1131.81V60.1492H1122.12V50.4562ZM1112.43 50.4562H1122.12V60.1492H1112.43V50.4562ZM1112.43 60.1492H1122.12V69.8422H1112.43V60.1492ZM1122.12 60.1492H1131.81V69.8422H1122.12V60.1492ZM1131.81 60.1492H1141.5V69.8422H1131.81V60.1492Z" fill="#00BFD3"/>
<rect y="82.9678" width="5.16129" height="5.16129" fill="#18808B"/>
<rect y="77.8066" width="5.16129" height="5.16129" fill="#18808B"/>
<rect y="72.6453" width="5.16129" height="5.16129" fill="#18808B"/>
<rect y="67.4839" width="5.16129" height="5.16129" fill="#18808B"/>
<rect y="62.3228" width="5.16129" height="5.16129" fill="#18808B"/>
<rect y="57.1614" width="5.16129" height="5.16129" fill="#18808B"/>
<rect y="52.0002" width="5.16129" height="5.16129" fill="#18808B"/>
<rect y="46.8389" width="5.16129" height="5.16129" fill="#18808B"/>
<rect y="41.6775" width="5.16129" height="5.16129" fill="#18808B"/>
<rect y="36.5164" width="5.16129" height="5.16129" fill="#18808B"/>
<rect y="31.355" width="5.16129" height="5.16129" fill="#18808B"/>
<rect y="26.1936" width="5.16129" height="5.16129" fill="#18808B"/>
<rect y="21.0325" width="5.16129" height="5.16129" fill="#18808B"/>
<rect y="15.8711" width="5.16129" height="5.16129" fill="#18808B"/>
<rect y="88.1292" width="5.16129" height="5.16129" fill="#18808B"/>
<rect y="93.2905" width="5.16129" height="5.16129" fill="#18808B"/>
<rect y="98.4517" width="5.16129" height="5.16129" fill="#18808B"/>
<rect y="103.613" width="5.16129" height="5.16129" fill="#18808B"/>
<rect y="108.774" width="5.16129" height="5.16129" fill="#18808B"/>
<rect y="113.936" width="5.16129" height="5.16129" fill="#18808B"/>
<rect y="119.097" width="5.16129" height="5.16129" fill="#18808B"/>
<rect y="124.258" width="5.16129" height="5.16129" fill="#18808B"/>
<rect y="129.419" width="5.16129" height="5.16129" fill="#18808B"/>
<rect y="134.581" width="5.16129" height="5.16129" fill="#18808B"/>
<rect x="72.2578" y="82.9678" width="5.16129" height="5.16129" fill="#18808B"/>
<rect x="72.2578" y="77.8066" width="5.16129" height="5.16129" fill="#18808B"/>
<rect x="72.2578" y="72.6453" width="5.16129" height="5.16129" fill="#18808B"/>
<rect x="72.2578" y="67.4839" width="5.16129" height="5.16129" fill="#18808B"/>
<rect x="72.2578" y="62.3228" width="5.16129" height="5.16129" fill="#18808B"/>
<rect x="72.2578" y="57.1614" width="5.16129" height="5.16129" fill="#18808B"/>
<rect x="72.2578" y="52.0002" width="5.16129" height="5.16129" fill="#18808B"/>
<rect x="72.2578" y="46.8389" width="5.16129" height="5.16129" fill="#18808B"/>
<rect x="72.2578" y="41.6775" width="5.16129" height="5.16129" fill="#18808B"/>
<rect x="72.2578" y="36.5164" width="5.16129" height="5.16129" fill="#18808B"/>
<rect x="72.2578" y="31.355" width="5.16129" height="5.16129" fill="#18808B"/>
<rect x="72.2578" y="26.1936" width="5.16129" height="5.16129" fill="#18808B"/>
<rect x="72.2578" y="21.0325" width="5.16129" height="5.16129" fill="#18808B"/>
<rect x="72.2578" y="15.8711" width="5.16129" height="5.16129" fill="#18808B"/>
<rect x="72.2578" y="88.1292" width="5.16129" height="5.16129" fill="#18808B"/>
<rect x="72.2578" y="93.2905" width="5.16129" height="5.16129" fill="#18808B"/>
<rect x="72.2578" y="98.4517" width="5.16129" height="5.16129" fill="#18808B"/>
<rect x="72.2578" y="103.613" width="5.16129" height="5.16129" fill="#18808B"/>
<rect x="72.2578" y="108.774" width="5.16129" height="5.16129" fill="#18808B"/>
<rect x="72.2578" y="113.936" width="5.16129" height="5.16129" fill="#18808B"/>
<rect x="72.2578" y="119.097" width="5.16129" height="5.16129" fill="#18808B"/>
<rect x="72.2578" y="124.258" width="5.16129" height="5.16129" fill="#18808B"/>
<rect x="72.2578" y="129.419" width="5.16129" height="5.16129" fill="#18808B"/>
<rect x="72.2578" y="134.581" width="5.16129" height="5.16129" fill="#18808B"/>
<rect x="5.16113" y="134.581" width="5.16129" height="5.16129" fill="#18808B"/>
<rect x="5.16113" y="139.742" width="5.16129" height="5.16129" fill="#18808B"/>
<rect x="10.3223" y="139.742" width="5.16129" height="5.16129" fill="#18808B"/>
<rect x="10.3223" y="144.903" width="5.16129" height="5.16129" fill="#18808B"/>
<rect x="15.4839" y="144.903" width="5.16129" height="5.16129" fill="#18808B"/>
<rect x="15.4839" y="150.065" width="5.16129" height="5.16129" fill="#18808B"/>
<rect x="20.645" y="150.065" width="5.16129" height="5.16129" fill="#18808B"/>
<rect x="25.8066" y="150.065" width="5.16129" height="5.16129" fill="#18808B"/>
<rect x="25.8066" y="155.226" width="5.16129" height="5.16129" fill="#18808B"/>
<rect x="30.9678" y="150.065" width="5.16129" height="5.16129" fill="#18808B"/>
<rect x="36.1289" y="150.065" width="5.16129" height="5.16129" fill="#18808B"/>
<rect x="30.9678" y="155.226" width="5.16129" height="5.16129" fill="#18808B"/>
<rect x="36.1289" y="155.226" width="5.16129" height="5.16129" fill="#18808B"/>
<rect x="56.7739" y="150.065" width="5.16129" height="5.16129" fill="#18808B"/>
<rect x="41.2905" y="155.226" width="5.16129" height="5.16129" fill="#18808B"/>
<rect x="46.4517" y="155.226" width="5.16129" height="5.16129" fill="#18808B"/>
<rect x="41.2905" y="150.065" width="5.16129" height="5.16129" fill="#18808B"/>
<rect x="67.0967" y="134.581" width="5.16129" height="5.16129" fill="#18808B"/>
<rect x="67.0967" y="139.742" width="5.16129" height="5.16129" fill="#18808B"/>
<rect x="61.9355" y="139.742" width="5.16129" height="5.16129" fill="#18808B"/>
<rect x="61.9355" y="144.903" width="5.16129" height="5.16129" fill="#18808B"/>
<rect x="56.7739" y="144.903" width="5.16129" height="5.16129" fill="#18808B"/>
<rect x="46.4517" y="150.065" width="5.16129" height="5.16129" fill="#18808B"/>
<rect x="51.6128" y="150.065" width="5.16129" height="5.16129" fill="#18808B"/>
<rect x="5.16113" y="15.8711" width="5.16129" height="5.16129" fill="#18808B"/>
<rect x="10.3223" y="21.0325" width="5.16129" height="5.16129" fill="#18808B"/>
<rect x="15.4839" y="21.0325" width="5.16129" height="5.16129" fill="#18808B"/>
<rect x="20.645" y="26.1936" width="5.16129" height="5.16129" fill="#18808B"/>
<rect x="25.8066" y="26.1936" width="5.16129" height="5.16129" fill="#18808B"/>
<rect x="30.9678" y="26.1936" width="5.16129" height="5.16129" fill="#18808B"/>
<rect x="67.0967" y="15.8711" width="5.16129" height="5.16129" fill="#18808B"/>
<rect x="61.9355" y="21.0325" width="5.16129" height="5.16129" fill="#18808B"/>
<rect x="51.6128" y="26.1936" width="5.16129" height="5.16129" fill="#18808B"/>
<rect x="56.7739" y="21.0325" width="5.16129" height="5.16129" fill="#18808B"/>
<rect x="46.4517" y="26.1936" width="5.16129" height="5.16129" fill="#18808B"/>
<rect x="41.2905" y="26.1936" width="5.16129" height="5.16129" fill="#18808B"/>
<rect x="36.1289" y="26.1936" width="5.16129" height="5.16129" fill="#18808B"/>
<rect width="5.16129" height="5.16129" transform="matrix(1 0 0 -1 5.16113 15.8711)" fill="#18808B"/>
<rect width="5.16129" height="5.16129" transform="matrix(1 0 0 -1 10.3223 10.7097)" fill="#18808B"/>
<rect width="5.16129" height="5.16129" transform="matrix(1 0 0 -1 15.4839 10.7097)" fill="#18808B"/>
<rect width="5.16129" height="5.16129" transform="matrix(1 0 0 -1 20.645 5.54858)" fill="#18808B"/>
<rect width="5.16129" height="5.16129" transform="matrix(1 0 0 -1 25.8066 5.54858)" fill="#18808B"/>
<rect width="5.16129" height="5.16129" transform="matrix(1 0 0 -1 30.9678 5.54858)" fill="#18808B"/>
<rect width="5.16129" height="5.16129" transform="matrix(1 0 0 -1 67.0967 15.8711)" fill="#18808B"/>
<rect width="5.16129" height="5.16129" transform="matrix(1 0 0 -1 61.9355 10.7097)" fill="#18808B"/>
<rect width="5.16129" height="5.16129" transform="matrix(1 0 0 -1 51.6128 5.54858)" fill="#18808B"/>
<rect width="5.16129" height="5.16129" transform="matrix(1 0 0 -1 56.7739 10.7097)" fill="#18808B"/>
<rect width="5.16129" height="5.16129" transform="matrix(1 0 0 -1 46.4517 5.54858)" fill="#18808B"/>
<rect width="5.16129" height="5.16129" transform="matrix(1 0 0 -1 41.2905 5.54858)" fill="#18808B"/>
<rect width="5.16129" height="5.16129" transform="matrix(1 0 0 -1 36.1289 5.54858)" fill="#18808B"/>
<rect x="5.16113" y="21.0325" width="5.16129" height="5.16129" fill="white" fill-opacity="0.21"/>
<rect x="10.3223" y="26.1936" width="5.16129" height="5.16129" fill="white" fill-opacity="0.21"/>
<rect x="15.4839" y="26.1936" width="5.16129" height="5.16129" fill="white" fill-opacity="0.21"/>
<rect x="20.645" y="31.355" width="5.16129" height="5.16129" fill="white" fill-opacity="0.21"/>
<rect x="25.8066" y="31.355" width="5.16129" height="5.16129" fill="white" fill-opacity="0.21"/>
<rect x="30.9678" y="31.355" width="5.16129" height="5.16129" fill="white" fill-opacity="0.21"/>
<rect x="36.1289" y="31.355" width="5.16129" height="5.16129" fill="white" fill-opacity="0.21"/>
<rect x="41.2905" y="31.355" width="5.16129" height="5.16129" fill="white" fill-opacity="0.21"/>
<rect x="46.4517" y="31.355" width="5.16129" height="5.16129" fill="white" fill-opacity="0.21"/>
<rect x="51.6128" y="31.355" width="5.16129" height="5.16129" fill="white" fill-opacity="0.21"/>
<rect x="56.7739" y="26.1936" width="5.16129" height="5.16129" fill="white" fill-opacity="0.21"/>
<rect x="61.9355" y="26.1936" width="5.16129" height="5.16129" fill="white" fill-opacity="0.21"/>
<rect x="67.0967" y="21.0325" width="5.16129" height="5.16129" fill="white" fill-opacity="0.21"/>
<rect x="10.3223" y="10.71" width="5.16129" height="5.16129" fill="white" fill-opacity="0.21"/>
<rect x="15.4834" y="10.71" width="5.16129" height="5.16129" fill="white" fill-opacity="0.21"/>
<rect x="20.645" y="5.54858" width="5.16129" height="5.16129" fill="white" fill-opacity="0.21"/>
<rect x="25.8062" y="5.54858" width="5.16129" height="5.16129" fill="white" fill-opacity="0.21"/>
<rect x="30.9678" y="5.54858" width="5.16129" height="5.16129" fill="white" fill-opacity="0.21"/>
<rect x="51.6128" y="5.54858" width="5.16129" height="5.16129" fill="white" fill-opacity="0.21"/>
<rect x="61.9355" y="10.71" width="5.16129" height="5.16129" fill="white" fill-opacity="0.21"/>
<rect x="56.7739" y="10.71" width="5.16129" height="5.16129" fill="white" fill-opacity="0.21"/>
<rect x="46.4517" y="5.54858" width="5.16129" height="5.16129" fill="white" fill-opacity="0.21"/>
<rect x="41.29" y="5.54858" width="5.16129" height="5.16129" fill="white" fill-opacity="0.21"/>
<rect x="36.1289" y="5.54858" width="5.16129" height="5.16129" fill="white" fill-opacity="0.21"/>
<path d="M17.4189 86.8389H27.7415V92.0002H32.9028V97.1614H38.0641V92.0002H43.2254V86.8389H58.7093V128.452H53.8706V133.29H48.7093V138.452H27.7415V133.29H22.5802V128.452H17.4189V86.8389Z" fill="#00BFD3"/>
<path d="M63.8711 133.291H58.71V138.452H53.5488V143.613H22.5811V133.291H27.7422V138.452H48.3867V133.291H53.5479V128.129H58.709V97.1619H63.8711V133.291ZM22.5801 102.323H17.4189V128.129H22.5801V138.452H17.4189V133.291H12.2578V97.1619H22.5801V102.323ZM32.9033 102.323H27.7422V107.484H22.5811V97.1619H32.9033V102.323ZM17.4189 97.1609H12.2578V86.8386H17.4189V97.1609ZM38.0645 97.1609H32.9033V91.9998H38.0645V97.1609ZM58.71 86.8386H63.8711V97.1609H58.709V91.9998H53.5479V86.8386H43.2256V81.6775H58.71V86.8386ZM32.9033 91.9998H27.7422V86.8386H32.9033V91.9998ZM43.2256 91.9998H38.0645V86.8386H43.2256V91.9998ZM22.5801 86.8386H17.4189V81.6775H22.5801V86.8386ZM27.7422 86.8386H22.5811V81.6775H27.7422V86.8386Z" fill="#006081"/>
<rect x="32.9033" y="97.1614" width="5.16129" height="5.16129" fill="#006081"/>
<rect x="38.0645" y="92" width="5.16129" height="5.16129" fill="#006081"/>
<rect x="27.7417" y="102.323" width="5.16129" height="5.16129" fill="#006081"/>
</g>
<defs>
<clipPath id="clip0_2090_4592">
<rect width="1161" height="160" fill="white"/>
</clipPath>
</defs>
</svg>
