<svg width="492" height="159" viewBox="0 0 492 159" fill="none" xmlns="http://www.w3.org/2000/svg">
<g clip-path="url(#clip0_2007_2657)">
<path d="M181.774 30.0703H191.467V39.7632H181.774V30.0703ZM191.467 30.0703H201.159V39.7632H191.467V30.0703ZM210.852 30.0703H220.545V39.7632H210.852V30.0703ZM220.545 30.0703H230.238V39.7632H220.545V30.0703ZM220.545 39.7632H230.238V49.4562H220.545V39.7632ZM220.545 49.4562H230.238V59.1492H220.545V49.4562ZM230.238 49.4562H239.931V59.1492H230.238V49.4562ZM230.238 39.7632H239.931V49.4562H230.238V39.7632ZM210.852 39.7632H220.545V49.4562H210.852V39.7632ZM191.467 39.7632H201.159V49.4562H191.467V39.7632ZM181.774 39.7632H191.467V49.4562H181.774V39.7632ZM172.081 39.7632H181.774V49.4562H172.081V39.7632ZM172.081 49.4562H181.774V59.1492H172.081V49.4562ZM181.774 49.4562H191.467V59.1492H181.774V49.4562ZM181.774 59.1492H191.467V68.8422H181.774V59.1492ZM172.081 59.1492H181.774V68.8422H172.081V59.1492ZM172.081 78.5351H181.774V88.2281H172.081V78.5351ZM181.774 78.5351H191.467V88.2281H181.774V78.5351ZM181.774 68.8422H191.467V78.5351H181.774V68.8422ZM191.467 68.8422H201.159V78.5351H191.467V68.8422ZM191.467 78.5351H201.159V88.2281H191.467V78.5351ZM210.852 78.5351H220.545V88.2281H210.852V78.5351ZM210.852 68.8422H220.545V78.5351H210.852V68.8422ZM220.545 68.8422H230.238V78.5351H220.545V68.8422ZM220.545 78.5351H230.238V88.2281H220.545V78.5351ZM230.238 78.5351H239.931V88.2281H230.238V78.5351ZM230.238 88.2281H239.931V97.9211H230.238V88.2281ZM230.238 97.9211H239.931V107.614H230.238V97.9211ZM220.545 97.9211H230.238V107.614H220.545V97.9211ZM220.545 88.2281H230.238V97.9211H220.545V88.2281ZM230.238 107.614H239.931V117.307H230.238V107.614ZM220.545 107.614H230.238V117.307H220.545V107.614ZM220.545 117.307H230.238V127H220.545V117.307ZM210.852 117.307H220.545V127H210.852V117.307ZM210.852 107.614H220.545V117.307H210.852V107.614ZM191.467 107.614H201.159V117.307H191.467V107.614ZM191.467 117.307H201.159V127H191.467V117.307ZM181.774 117.307H191.467V127H181.774V117.307ZM181.774 107.614H191.467V117.307H181.774V107.614ZM172.081 107.614H181.774V117.307H172.081V107.614ZM172.081 97.9211H181.774V107.614H172.081V97.9211ZM172.081 88.2281H181.774V97.9211H172.081V88.2281ZM181.774 88.2281H191.467V97.9211H181.774V88.2281ZM181.774 97.9211H191.467V107.614H181.774V97.9211ZM230.238 59.1492H239.931V68.8422H230.238V59.1492ZM220.545 59.1492H230.238V68.8422H220.545V59.1492ZM201.159 30.0703H210.852V39.7632H201.159V30.0703ZM201.159 39.7632H210.852V49.4562H201.159V39.7632ZM201.159 68.8422H210.852V78.5351H201.159V68.8422ZM201.159 78.5351H210.852V88.2281H201.159V78.5351ZM201.159 107.614H210.852V117.307H201.159V107.614ZM201.159 117.307H210.852V127H201.159V117.307ZM249.65 30.0703H259.343V39.7632H249.65V30.0703ZM259.343 30.0703H269.036V39.7632H259.343V30.0703ZM259.343 39.7632H269.036V49.4562H259.343V39.7632ZM259.343 49.4562H269.036V59.1492H259.343V49.4562ZM259.343 59.1492H269.036V68.8422H259.343V59.1492ZM259.343 68.8422H269.036V78.5351H259.343V68.8422ZM259.343 78.5351H269.036V88.2281H259.343V78.5351ZM249.65 78.5351H259.343V88.2281H249.65V78.5351ZM249.65 88.2281H259.343V97.9211H249.65V88.2281ZM249.65 97.9211H259.343V107.614H249.65V97.9211ZM249.65 107.614H259.343V117.307H249.65V107.614ZM249.65 117.307H259.343V127H249.65V117.307ZM259.343 117.307H269.036V127H259.343V117.307ZM259.343 107.614H269.036V117.307H259.343V107.614ZM259.343 97.9211H269.036V107.614H259.343V97.9211ZM259.343 88.2281H269.036V97.9211H259.343V88.2281ZM249.65 68.8422H259.343V78.5351H249.65V68.8422ZM249.65 59.1492H259.343V68.8422H249.65V59.1492ZM249.65 49.4562H259.343V59.1492H249.65V49.4562ZM249.65 39.7632H259.343V49.4562H249.65V39.7632ZM336.962 127H327.269V117.307H336.962V127ZM336.962 117.307H327.269V107.614H336.962V117.307ZM327.269 117.307H317.576V107.614H327.269V117.307ZM317.576 127H307.883V117.307H317.576V127ZM307.883 127H298.19V117.307H307.883V127ZM298.19 127H288.497V117.307H298.19V127ZM298.19 117.307H288.497V107.614H298.19V117.307ZM307.883 117.307H298.19V107.614H307.883V117.307ZM288.497 117.307H278.804V107.614H288.497V117.307ZM288.497 107.614H278.804V97.9211H288.497V107.614ZM288.497 68.8422H278.804V59.1492H288.497V68.8422ZM298.19 68.8422H288.497V59.1492H298.19V68.8422ZM298.19 107.614H288.497V97.9211H298.19V107.614ZM307.883 68.8422H298.19V59.1492H307.883V68.8422ZM298.19 59.1492H288.497V49.4562H298.19V59.1492ZM307.883 59.1492H298.19V49.4562H307.883V59.1492ZM317.576 59.1492H307.883V49.4562H317.576V59.1492ZM327.269 59.1492H317.576V49.4562H327.269V59.1492ZM336.962 59.1492H327.269V49.4562H336.962V59.1492ZM336.962 68.8422H327.269V59.1492H336.962V68.8422ZM327.269 68.8422H317.576V59.1492H327.269V68.8422ZM336.962 78.5351H327.269V68.8422H336.962V78.5351ZM346.655 68.8422H336.962V59.1492H346.655V68.8422ZM346.655 78.5351H336.962V68.8422H346.655V78.5351ZM346.655 88.2281H336.962V78.5351H346.655V88.2281ZM346.655 97.9211H336.962V88.2281H346.655V97.9211ZM346.655 107.614H336.962V97.9211H346.655V107.614ZM346.655 117.307H336.962V107.614H346.655V117.307ZM336.962 107.614H327.269V97.9211H336.962V107.614ZM336.962 97.9211H327.269V88.2281H336.962V97.9211ZM336.962 88.2281H327.269V78.5351H336.962V88.2281ZM317.576 68.8422H307.883V59.1492H317.576V68.8422ZM317.576 117.307H307.883V107.614H317.576V117.307ZM336.962 117.307H346.655V127H336.962V117.307ZM317.576 78.5351H327.269V88.2281H317.576V78.5351ZM307.883 78.5351H317.576V88.2281H307.883V78.5351ZM298.19 78.5351H307.883V88.2281H298.19V78.5351ZM288.497 78.5351H298.19V88.2281H288.497V78.5351ZM278.804 88.2281H288.497V97.9211H278.804V88.2281ZM288.497 88.2281H298.19V97.9211H288.497V88.2281ZM317.576 88.2281H327.269V97.9211H317.576V88.2281ZM307.883 88.2281H317.576V97.9211H307.883V88.2281ZM298.19 88.2281H307.883V97.9211H298.19V88.2281ZM356.373 59.1492H366.066V68.8422H356.373V59.1492ZM356.373 49.4562H366.066V59.1492H356.373V49.4562ZM366.066 49.4562H375.759V59.1492H366.066V49.4562ZM366.066 59.1492H375.759V68.8422H366.066V59.1492ZM366.066 68.8422H375.759V78.5351H366.066V68.8422ZM366.066 78.5351H375.759V88.2281H366.066V78.5351ZM366.066 88.2281H375.759V97.9211H366.066V88.2281ZM356.373 88.2281H366.066V97.9211H356.373V88.2281ZM356.373 78.5351H366.066V88.2281H356.373V78.5351ZM356.373 68.8422H366.066V78.5351H356.373V68.8422ZM356.373 97.9211H366.066V107.614H356.373V97.9211ZM366.066 97.9211H375.759V107.614H366.066V97.9211ZM366.066 107.614H375.759V117.307H366.066V107.614ZM366.066 117.307H375.759V127H366.066V117.307ZM356.373 117.307H366.066V127H356.373V117.307ZM356.373 107.614H366.066V117.307H356.373V107.614ZM404.838 117.307H414.531V127H404.838V117.307ZM414.531 107.614H424.224V117.307H414.531V107.614ZM414.531 97.9211H424.224V107.614H414.531V97.9211ZM414.531 88.2281H424.224V97.9211H414.531V88.2281ZM414.531 78.5351H424.224V88.2281H414.531V78.5351ZM414.531 68.8422H424.224V78.5351H414.531V68.8422ZM414.531 59.1492H424.224V68.8422H414.531V59.1492ZM404.838 78.5351H414.531V88.2281H404.838V78.5351ZM404.838 88.2281H414.531V97.9211H404.838V88.2281ZM404.838 97.9211H414.531V107.614H404.838V97.9211ZM404.838 107.614H414.531V117.307H404.838V107.614ZM404.838 68.8422H414.531V78.5351H404.838V68.8422ZM375.759 59.1492H385.452V68.8422H375.759V59.1492ZM385.452 59.1492H395.145V68.8422H385.452V59.1492ZM395.145 59.1492H404.838V68.8422H395.145V59.1492ZM395.145 49.4562H404.838V59.1492H395.145V49.4562ZM404.838 49.4562H414.531V59.1492H404.838V49.4562ZM404.838 59.1492H414.531V68.8422H404.838V59.1492ZM385.452 49.4562H395.145V59.1492H385.452V49.4562ZM356.373 30.0703H366.066V39.7632H356.373V30.0703ZM366.066 30.0703H375.759V39.7632H366.066V30.0703ZM366.066 39.7632H375.759V49.4562H366.066V39.7632ZM356.373 39.7632H366.066V49.4562H356.373V39.7632ZM375.759 117.307H385.452V127H375.759V117.307ZM385.452 117.307H395.145V127H385.452V117.307ZM395.145 117.307H404.838V127H395.145V117.307ZM395.145 107.614H404.838V117.307H395.145V107.614ZM385.452 107.614H395.145V117.307H385.452V107.614ZM375.759 107.614H385.452V117.307H375.759V107.614ZM433.942 59.1492H443.635V68.8422H433.942V59.1492ZM443.635 68.8422H453.328V78.5351H443.635V68.8422ZM433.942 68.8422H443.635V78.5351H433.942V68.8422ZM433.942 78.5351H443.635V88.2281H433.942V78.5351ZM443.635 78.5351H453.328V88.2281H443.635V78.5351ZM443.635 88.2281H453.328V97.9211H443.635V88.2281ZM453.328 88.2281H463.021V97.9211H453.328V88.2281ZM463.021 88.2281H472.714V97.9211H463.021V88.2281ZM472.714 78.5351H482.407V88.2281H472.714V78.5351ZM463.021 78.5351H472.714V88.2281H463.021V78.5351ZM453.328 78.5351H463.021V88.2281H453.328V78.5351ZM472.714 88.2281H482.407V97.9211H472.714V88.2281ZM482.407 88.2281H492.1V97.9211H482.407V88.2281ZM482.407 97.9211H492.1V107.614H482.407V97.9211ZM472.714 97.9211H482.407V107.614H472.714V97.9211ZM472.714 107.614H482.407V117.307H472.714V107.614ZM482.407 107.614H492.1V117.307H482.407V107.614ZM472.714 117.307H482.407V127H472.714V117.307ZM463.021 107.614H472.714V117.307H463.021V107.614ZM453.328 107.614H463.021V117.307H453.328V107.614ZM443.635 107.614H453.328V117.307H443.635V107.614ZM433.942 107.614H443.635V117.307H433.942V107.614ZM443.635 117.307H453.328V127H443.635V117.307ZM453.328 117.307H463.021V127H453.328V117.307ZM463.021 117.307H472.714V127H463.021V117.307ZM482.407 59.1492H492.1V68.8422H482.407V59.1492ZM472.714 59.1492H482.407V68.8422H472.714V59.1492ZM472.714 49.4562H482.407V59.1492H472.714V49.4562ZM463.021 49.4562H472.714V59.1492H463.021V49.4562ZM453.328 49.4562H463.021V59.1492H453.328V49.4562ZM443.635 49.4562H453.328V59.1492H443.635V49.4562ZM443.635 59.1492H453.328V68.8422H443.635V59.1492ZM453.328 59.1492H463.021V68.8422H453.328V59.1492ZM463.021 59.1492H472.714V68.8422H463.021V59.1492Z" fill="#00BFD3"/>
<rect y="81.9678" width="5.16129" height="5.16129" fill="#18808B"/>
<rect y="76.8065" width="5.16129" height="5.16129" fill="#18808B"/>
<rect y="71.6451" width="5.16129" height="5.16129" fill="#18808B"/>
<rect y="66.4839" width="5.16129" height="5.16129" fill="#18808B"/>
<rect y="61.3226" width="5.16129" height="5.16129" fill="#18808B"/>
<rect y="56.1613" width="5.16129" height="5.16129" fill="#18808B"/>
<rect y="51" width="5.16129" height="5.16129" fill="#18808B"/>
<rect y="45.8387" width="5.16129" height="5.16129" fill="#18808B"/>
<rect y="40.6775" width="5.16129" height="5.16129" fill="#18808B"/>
<rect y="35.5161" width="5.16129" height="5.16129" fill="#18808B"/>
<rect y="30.3549" width="5.16129" height="5.16129" fill="#18808B"/>
<rect y="25.1936" width="5.16129" height="5.16129" fill="#18808B"/>
<rect y="20.0322" width="5.16129" height="5.16129" fill="#18808B"/>
<rect y="14.871" width="5.16129" height="5.16129" fill="#18808B"/>
<rect y="87.129" width="5.16129" height="5.16129" fill="#18808B"/>
<rect y="92.2903" width="5.16129" height="5.16129" fill="#18808B"/>
<rect y="97.4517" width="5.16129" height="5.16129" fill="#18808B"/>
<rect y="102.613" width="5.16129" height="5.16129" fill="#18808B"/>
<rect y="107.774" width="5.16129" height="5.16129" fill="#18808B"/>
<rect y="112.935" width="5.16129" height="5.16129" fill="#18808B"/>
<rect y="118.097" width="5.16129" height="5.16129" fill="#18808B"/>
<rect y="123.258" width="5.16129" height="5.16129" fill="#18808B"/>
<rect y="128.419" width="5.16129" height="5.16129" fill="#18808B"/>
<rect y="133.581" width="5.16129" height="5.16129" fill="#18808B"/>
<rect x="72.2578" y="81.9678" width="5.16129" height="5.16129" fill="#18808B"/>
<rect x="72.2578" y="76.8065" width="5.16129" height="5.16129" fill="#18808B"/>
<rect x="72.2578" y="71.6451" width="5.16129" height="5.16129" fill="#18808B"/>
<rect x="72.2578" y="66.4839" width="5.16129" height="5.16129" fill="#18808B"/>
<rect x="72.2578" y="61.3226" width="5.16129" height="5.16129" fill="#18808B"/>
<rect x="72.2578" y="56.1613" width="5.16129" height="5.16129" fill="#18808B"/>
<rect x="72.2578" y="51" width="5.16129" height="5.16129" fill="#18808B"/>
<rect x="72.2578" y="45.8387" width="5.16129" height="5.16129" fill="#18808B"/>
<rect x="72.2578" y="40.6775" width="5.16129" height="5.16129" fill="#18808B"/>
<rect x="72.2578" y="35.5161" width="5.16129" height="5.16129" fill="#18808B"/>
<rect x="72.2578" y="30.3549" width="5.16129" height="5.16129" fill="#18808B"/>
<rect x="72.2578" y="25.1936" width="5.16129" height="5.16129" fill="#18808B"/>
<rect x="72.2578" y="20.0322" width="5.16129" height="5.16129" fill="#18808B"/>
<rect x="72.2578" y="14.871" width="5.16129" height="5.16129" fill="#18808B"/>
<rect x="72.2578" y="87.129" width="5.16129" height="5.16129" fill="#18808B"/>
<rect x="72.2578" y="92.2903" width="5.16129" height="5.16129" fill="#18808B"/>
<rect x="72.2578" y="97.4517" width="5.16129" height="5.16129" fill="#18808B"/>
<rect x="72.2578" y="102.613" width="5.16129" height="5.16129" fill="#18808B"/>
<rect x="72.2578" y="107.774" width="5.16129" height="5.16129" fill="#18808B"/>
<rect x="72.2578" y="112.935" width="5.16129" height="5.16129" fill="#18808B"/>
<rect x="72.2578" y="118.097" width="5.16129" height="5.16129" fill="#18808B"/>
<rect x="72.2578" y="123.258" width="5.16129" height="5.16129" fill="#18808B"/>
<rect x="72.2578" y="128.419" width="5.16129" height="5.16129" fill="#18808B"/>
<rect x="72.2578" y="133.581" width="5.16129" height="5.16129" fill="#18808B"/>
<rect x="5.16113" y="133.581" width="5.16129" height="5.16129" fill="#18808B"/>
<rect x="5.16113" y="138.742" width="5.16129" height="5.16129" fill="#18808B"/>
<rect x="10.3223" y="138.742" width="5.16129" height="5.16129" fill="#18808B"/>
<rect x="10.3223" y="143.903" width="5.16129" height="5.16129" fill="#18808B"/>
<rect x="15.4839" y="143.903" width="5.16129" height="5.16129" fill="#18808B"/>
<rect x="15.4839" y="149.064" width="5.16129" height="5.16129" fill="#18808B"/>
<rect x="20.645" y="149.064" width="5.16129" height="5.16129" fill="#18808B"/>
<rect x="25.8066" y="149.064" width="5.16129" height="5.16129" fill="#18808B"/>
<rect x="25.8066" y="154.226" width="5.16129" height="5.16129" fill="#18808B"/>
<rect x="30.9678" y="149.064" width="5.16129" height="5.16129" fill="#18808B"/>
<rect x="36.1289" y="149.064" width="5.16129" height="5.16129" fill="#18808B"/>
<rect x="30.9678" y="154.226" width="5.16129" height="5.16129" fill="#18808B"/>
<rect x="36.1289" y="154.226" width="5.16129" height="5.16129" fill="#18808B"/>
<rect x="56.7739" y="149.064" width="5.16129" height="5.16129" fill="#18808B"/>
<rect x="41.2905" y="154.226" width="5.16129" height="5.16129" fill="#18808B"/>
<rect x="46.4517" y="154.226" width="5.16129" height="5.16129" fill="#18808B"/>
<rect x="41.2905" y="149.064" width="5.16129" height="5.16129" fill="#18808B"/>
<rect x="67.0967" y="133.581" width="5.16129" height="5.16129" fill="#18808B"/>
<rect x="67.0967" y="138.742" width="5.16129" height="5.16129" fill="#18808B"/>
<rect x="61.9355" y="138.742" width="5.16129" height="5.16129" fill="#18808B"/>
<rect x="61.9355" y="143.903" width="5.16129" height="5.16129" fill="#18808B"/>
<rect x="56.7739" y="143.903" width="5.16129" height="5.16129" fill="#18808B"/>
<rect x="46.4517" y="149.064" width="5.16129" height="5.16129" fill="#18808B"/>
<rect x="51.6128" y="149.064" width="5.16129" height="5.16129" fill="#18808B"/>
<rect x="5.16113" y="14.871" width="5.16129" height="5.16129" fill="#18808B"/>
<rect x="10.3223" y="20.0322" width="5.16129" height="5.16129" fill="#18808B"/>
<rect x="15.4839" y="20.0322" width="5.16129" height="5.16129" fill="#18808B"/>
<rect x="20.645" y="25.1936" width="5.16129" height="5.16129" fill="#18808B"/>
<rect x="25.8066" y="25.1936" width="5.16129" height="5.16129" fill="#18808B"/>
<rect x="30.9678" y="25.1936" width="5.16129" height="5.16129" fill="#18808B"/>
<rect x="67.0967" y="14.871" width="5.16129" height="5.16129" fill="#18808B"/>
<rect x="61.9355" y="20.0322" width="5.16129" height="5.16129" fill="#18808B"/>
<rect x="51.6128" y="25.1936" width="5.16129" height="5.16129" fill="#18808B"/>
<rect x="56.7739" y="20.0322" width="5.16129" height="5.16129" fill="#18808B"/>
<rect x="46.4517" y="25.1936" width="5.16129" height="5.16129" fill="#18808B"/>
<rect x="41.2905" y="25.1936" width="5.16129" height="5.16129" fill="#18808B"/>
<rect x="36.1289" y="25.1936" width="5.16129" height="5.16129" fill="#18808B"/>
<rect width="5.16129" height="5.16129" transform="matrix(1 0 0 -1 5.16113 14.871)" fill="#18808B"/>
<rect width="5.16129" height="5.16129" transform="matrix(1 0 0 -1 10.3223 9.70972)" fill="#18808B"/>
<rect width="5.16129" height="5.16129" transform="matrix(1 0 0 -1 15.4839 9.70972)" fill="#18808B"/>
<rect width="5.16129" height="5.16129" transform="matrix(1 0 0 -1 20.645 4.54846)" fill="#18808B"/>
<rect width="5.16129" height="5.16129" transform="matrix(1 0 0 -1 25.8066 4.54846)" fill="#18808B"/>
<rect width="5.16129" height="5.16129" transform="matrix(1 0 0 -1 30.9678 4.54846)" fill="#18808B"/>
<rect width="5.16129" height="5.16129" transform="matrix(1 0 0 -1 67.0967 14.871)" fill="#18808B"/>
<rect width="5.16129" height="5.16129" transform="matrix(1 0 0 -1 61.9355 9.70972)" fill="#18808B"/>
<rect width="5.16129" height="5.16129" transform="matrix(1 0 0 -1 51.6128 4.54846)" fill="#18808B"/>
<rect width="5.16129" height="5.16129" transform="matrix(1 0 0 -1 56.7739 9.70972)" fill="#18808B"/>
<rect width="5.16129" height="5.16129" transform="matrix(1 0 0 -1 46.4517 4.54846)" fill="#18808B"/>
<rect width="5.16129" height="5.16129" transform="matrix(1 0 0 -1 41.2905 4.54846)" fill="#18808B"/>
<rect width="5.16129" height="5.16129" transform="matrix(1 0 0 -1 36.1289 4.54846)" fill="#18808B"/>
<rect x="5.16113" y="20.0323" width="5.16129" height="5.16129" fill="white" fill-opacity="0.21"/>
<rect x="10.3223" y="25.1936" width="5.16129" height="5.16129" fill="white" fill-opacity="0.21"/>
<rect x="15.4839" y="25.1936" width="5.16129" height="5.16129" fill="white" fill-opacity="0.21"/>
<rect x="20.645" y="30.3549" width="5.16129" height="5.16129" fill="white" fill-opacity="0.21"/>
<rect x="25.8066" y="30.3549" width="5.16129" height="5.16129" fill="white" fill-opacity="0.21"/>
<rect x="30.9678" y="30.3549" width="5.16129" height="5.16129" fill="white" fill-opacity="0.21"/>
<rect x="36.1289" y="30.3549" width="5.16129" height="5.16129" fill="white" fill-opacity="0.21"/>
<rect x="41.2905" y="30.3549" width="5.16129" height="5.16129" fill="white" fill-opacity="0.21"/>
<rect x="46.4517" y="30.3549" width="5.16129" height="5.16129" fill="white" fill-opacity="0.21"/>
<rect x="51.6128" y="30.3549" width="5.16129" height="5.16129" fill="white" fill-opacity="0.21"/>
<rect x="56.7739" y="25.1936" width="5.16129" height="5.16129" fill="white" fill-opacity="0.21"/>
<rect x="61.9355" y="25.1936" width="5.16129" height="5.16129" fill="white" fill-opacity="0.21"/>
<rect x="67.0967" y="20.0323" width="5.16129" height="5.16129" fill="white" fill-opacity="0.21"/>
<rect x="10.3223" y="9.70972" width="5.16129" height="5.16129" fill="white" fill-opacity="0.21"/>
<rect x="15.4834" y="9.70972" width="5.16129" height="5.16129" fill="white" fill-opacity="0.21"/>
<rect x="20.645" y="4.54846" width="5.16129" height="5.16129" fill="white" fill-opacity="0.21"/>
<rect x="25.8062" y="4.54846" width="5.16129" height="5.16129" fill="white" fill-opacity="0.21"/>
<rect x="30.9678" y="4.54846" width="5.16129" height="5.16129" fill="white" fill-opacity="0.21"/>
<rect x="51.6128" y="4.54846" width="5.16129" height="5.16129" fill="white" fill-opacity="0.21"/>
<rect x="61.9355" y="9.70972" width="5.16129" height="5.16129" fill="white" fill-opacity="0.21"/>
<rect x="56.7739" y="9.70972" width="5.16129" height="5.16129" fill="white" fill-opacity="0.21"/>
<rect x="46.4517" y="4.54846" width="5.16129" height="5.16129" fill="white" fill-opacity="0.21"/>
<rect x="41.29" y="4.54846" width="5.16129" height="5.16129" fill="white" fill-opacity="0.21"/>
<rect x="36.1289" y="4.54846" width="5.16129" height="5.16129" fill="white" fill-opacity="0.21"/>
<path d="M17.4189 85.8387H27.7415V91H32.9028V96.1613H38.0641V91H43.2254V85.8387H58.7093V127.452H53.8706V132.29H48.7093V137.452H27.7415V132.29H22.5802V127.452H17.4189V85.8387Z" fill="#00BFD3"/>
<path d="M63.8711 132.291H58.71V137.452H53.5488V142.613H22.5811V132.291H27.7422V137.452H48.3867V132.291H53.5479V127.129H58.709V96.1617H63.8711V132.291ZM22.5801 101.323H17.4189V127.129H22.5801V137.452H17.4189V132.291H12.2578V96.1617H22.5801V101.323ZM32.9033 101.323H27.7422V106.484H22.5811V96.1617H32.9033V101.323ZM17.4189 96.1608H12.2578V85.8385H17.4189V96.1608ZM38.0645 96.1608H32.9033V90.9996H38.0645V96.1608ZM58.71 85.8385H63.8711V96.1608H58.709V90.9996H53.5479V85.8385H43.2256V80.6774H58.71V85.8385ZM32.9033 90.9996H27.7422V85.8385H32.9033V90.9996ZM43.2256 90.9996H38.0645V85.8385H43.2256V90.9996ZM22.5801 85.8385H17.4189V80.6774H22.5801V85.8385ZM27.7422 85.8385H22.5811V80.6774H27.7422V85.8385Z" fill="#006081"/>
<rect x="32.9033" y="96.1613" width="5.16129" height="5.16129" fill="#006081"/>
<rect x="38.0645" y="91" width="5.16129" height="5.16129" fill="#006081"/>
<rect x="27.7417" y="101.323" width="5.16129" height="5.16129" fill="#006081"/>
</g>
<defs>
<clipPath id="clip0_2007_2657">
<rect width="492" height="159" fill="white"/>
</clipPath>
</defs>
</svg>
