<svg width="321" height="98" viewBox="0 0 321 98" fill="none" xmlns="http://www.w3.org/2000/svg">
<path d="M9.77354 0.683194H19.4665V10.3762H9.77354V0.683194ZM19.4665 0.683194H29.1595V10.3762H19.4665V0.683194ZM38.8525 0.683194H48.5454V10.3762H38.8525V0.683194ZM48.5454 0.683194H58.2384V10.3762H48.5454V0.683194ZM48.5454 10.3762H58.2384V20.0691H48.5454V10.3762ZM48.5454 20.0691H58.2384V29.7621H48.5454V20.0691ZM58.2384 20.0691H67.9314V29.7621H58.2384V20.0691ZM58.2384 10.3762H67.9314V20.0691H58.2384V10.3762ZM38.8525 10.3762H48.5454V20.0691H38.8525V10.3762ZM19.4665 10.3762H29.1595V20.0691H19.4665V10.3762ZM9.77354 10.3762H19.4665V20.0691H9.77354V10.3762ZM0.0805664 10.3762H9.77354V20.0691H0.0805664V10.3762ZM0.0805664 20.0691H9.77354V29.7621H0.0805664V20.0691ZM9.77354 20.0691H19.4665V29.7621H9.77354V20.0691ZM9.77354 29.7621H19.4665V39.4551H9.77354V29.7621ZM0.0805664 29.7621H9.77354V39.4551H0.0805664V29.7621ZM0.0805664 49.1481H9.77354V58.841H0.0805664V49.1481ZM9.77354 49.1481H19.4665V58.841H9.77354V49.1481ZM9.77354 39.4551H19.4665V49.1481H9.77354V39.4551ZM19.4665 39.4551H29.1595V49.1481H19.4665V39.4551ZM19.4665 49.1481H29.1595V58.841H19.4665V49.1481ZM38.8525 49.1481H48.5454V58.841H38.8525V49.1481ZM38.8525 39.4551H48.5454V49.1481H38.8525V39.4551ZM48.5454 39.4551H58.2384V49.1481H48.5454V39.4551ZM48.5454 49.1481H58.2384V58.841H48.5454V49.1481ZM58.2384 49.1481H67.9314V58.841H58.2384V49.1481ZM58.2384 58.841H67.9314V68.534H58.2384V58.841ZM58.2384 68.534H67.9314V78.227H58.2384V68.534ZM48.5454 68.534H58.2384V78.227H48.5454V68.534ZM48.5454 58.841H58.2384V68.534H48.5454V58.841ZM58.2384 78.227H67.9314V87.9199H58.2384V78.227ZM48.5454 78.227H58.2384V87.9199H48.5454V78.227ZM48.5454 87.9199H58.2384V97.6129H48.5454V87.9199ZM38.8525 87.9199H48.5454V97.6129H38.8525V87.9199ZM38.8525 78.227H48.5454V87.9199H38.8525V78.227ZM19.4665 78.227H29.1595V87.9199H19.4665V78.227ZM19.4665 87.9199H29.1595V97.6129H19.4665V87.9199ZM9.77354 87.9199H19.4665V97.6129H9.77354V87.9199ZM9.77354 78.227H19.4665V87.9199H9.77354V78.227ZM0.0805664 78.227H9.77354V87.9199H0.0805664V78.227ZM0.0805664 68.534H9.77354V78.227H0.0805664V68.534ZM0.0805664 58.841H9.77354V68.534H0.0805664V58.841ZM9.77354 58.841H19.4665V68.534H9.77354V58.841ZM9.77354 68.534H19.4665V78.227H9.77354V68.534ZM58.2384 29.7621H67.9314V39.4551H58.2384V29.7621ZM48.5454 29.7621H58.2384V39.4551H48.5454V29.7621ZM29.1595 0.683194H38.8525V10.3762H29.1595V0.683194ZM29.1595 10.3762H38.8525V20.0691H29.1595V10.3762ZM29.1595 39.4551H38.8525V49.1481H29.1595V39.4551ZM29.1595 49.1481H38.8525V58.841H29.1595V49.1481ZM29.1595 78.227H38.8525V87.9199H29.1595V78.227ZM29.1595 87.9199H38.8525V97.6129H29.1595V87.9199ZM77.6496 0.683194H87.3426V10.3762H77.6496V0.683194ZM87.3426 0.683194H97.0355V10.3762H87.3426V0.683194ZM87.3426 10.3762H97.0355V20.0691H87.3426V10.3762ZM87.3426 20.0691H97.0355V29.7621H87.3426V20.0691ZM87.3426 29.7621H97.0355V39.4551H87.3426V29.7621ZM87.3426 39.4551H97.0355V49.1481H87.3426V39.4551ZM87.3426 49.1481H97.0355V58.841H87.3426V49.1481ZM77.6496 49.1481H87.3426V58.841H77.6496V49.1481ZM77.6496 58.841H87.3426V68.534H77.6496V58.841ZM77.6496 68.534H87.3426V78.227H77.6496V68.534ZM77.6496 78.227H87.3426V87.9199H77.6496V78.227ZM77.6496 87.9199H87.3426V97.6129H77.6496V87.9199ZM87.3426 87.9199H97.0355V97.6129H87.3426V87.9199ZM87.3426 78.227H97.0355V87.9199H87.3426V78.227ZM87.3426 68.534H97.0355V78.227H87.3426V68.534ZM87.3426 58.841H97.0355V68.534H87.3426V58.841ZM77.6496 39.4551H87.3426V49.1481H77.6496V39.4551ZM77.6496 29.7621H87.3426V39.4551H77.6496V29.7621ZM77.6496 20.0691H87.3426V29.7621H77.6496V20.0691ZM77.6496 10.3762H87.3426V20.0691H77.6496V10.3762ZM164.962 97.6129H155.269V87.9199H164.962V97.6129ZM164.962 87.9199H155.269V78.227H164.962V87.9199ZM155.269 87.9199H145.576V78.227H155.269V87.9199ZM145.576 97.6129H135.883V87.9199H145.576V97.6129ZM135.883 97.6129H126.19V87.9199H135.883V97.6129ZM126.19 97.6129H116.497V87.9199H126.19V97.6129ZM126.19 87.9199H116.497V78.227H126.19V87.9199ZM135.883 87.9199H126.19V78.227H135.883V87.9199ZM116.497 87.9199H106.804V78.227H116.497V87.9199ZM116.497 78.227H106.804V68.534H116.497V78.227ZM116.497 39.4551H106.804V29.7621H116.497V39.4551ZM126.19 39.4551H116.497V29.7621H126.19V39.4551ZM126.19 78.227H116.497V68.534H126.19V78.227ZM135.883 39.4551H126.19V29.7621H135.883V39.4551ZM126.19 29.7621H116.497V20.0691H126.19V29.7621ZM135.883 29.7621H126.19V20.0691H135.883V29.7621ZM145.576 29.7621H135.883V20.0691H145.576V29.7621ZM155.269 29.7621H145.576V20.0691H155.269V29.7621ZM164.962 29.7621H155.269V20.0691H164.962V29.7621ZM164.962 39.4551H155.269V29.7621H164.962V39.4551ZM155.269 39.4551H145.576V29.7621H155.269V39.4551ZM164.962 49.1481H155.269V39.4551H164.962V49.1481ZM174.655 39.4551H164.962V29.7621H174.655V39.4551ZM174.655 49.1481H164.962V39.4551H174.655V49.1481ZM174.655 58.841H164.962V49.1481H174.655V58.841ZM174.655 68.534H164.962V58.841H174.655V68.534ZM174.655 78.227H164.962V68.534H174.655V78.227ZM174.655 87.9199H164.962V78.227H174.655V87.9199ZM164.962 78.227H155.269V68.534H164.962V78.227ZM164.962 68.534H155.269V58.841H164.962V68.534ZM164.962 58.841H155.269V49.1481H164.962V58.841ZM145.576 39.4551H135.883V29.7621H145.576V39.4551ZM145.576 87.9199H135.883V78.227H145.576V87.9199ZM164.962 87.9199H174.655V97.6129H164.962V87.9199ZM145.576 49.1481H155.269V58.841H145.576V49.1481ZM135.883 49.1481H145.576V58.841H135.883V49.1481ZM126.19 49.1481H135.883V58.841H126.19V49.1481ZM116.497 49.1481H126.19V58.841H116.497V49.1481ZM106.804 58.841H116.497V68.534H106.804V58.841ZM116.497 58.841H126.19V68.534H116.497V58.841ZM145.576 58.841H155.269V68.534H145.576V58.841ZM135.883 58.841H145.576V68.534H135.883V58.841ZM126.19 58.841H135.883V68.534H126.19V58.841ZM184.373 29.7621H194.066V39.4551H184.373V29.7621ZM184.373 20.0691H194.066V29.7621H184.373V20.0691ZM194.066 20.0691H203.759V29.7621H194.066V20.0691ZM194.066 29.7621H203.759V39.4551H194.066V29.7621ZM194.066 39.4551H203.759V49.1481H194.066V39.4551ZM194.066 49.1481H203.759V58.841H194.066V49.1481ZM194.066 58.841H203.759V68.534H194.066V58.841ZM184.373 58.841H194.066V68.534H184.373V58.841ZM184.373 49.1481H194.066V58.841H184.373V49.1481ZM184.373 39.4551H194.066V49.1481H184.373V39.4551ZM184.373 68.534H194.066V78.227H184.373V68.534ZM194.066 68.534H203.759V78.227H194.066V68.534ZM194.066 78.227H203.759V87.9199H194.066V78.227ZM194.066 87.9199H203.759V97.6129H194.066V87.9199ZM184.373 87.9199H194.066V97.6129H184.373V87.9199ZM184.373 78.227H194.066V87.9199H184.373V78.227ZM232.838 87.9199H242.531V97.6129H232.838V87.9199ZM242.531 78.227H252.224V87.9199H242.531V78.227ZM242.531 68.534H252.224V78.227H242.531V68.534ZM242.531 58.841H252.224V68.534H242.531V58.841ZM242.531 49.1481H252.224V58.841H242.531V49.1481ZM242.531 39.4551H252.224V49.1481H242.531V39.4551ZM242.531 29.7621H252.224V39.4551H242.531V29.7621ZM232.838 49.1481H242.531V58.841H232.838V49.1481ZM232.838 58.841H242.531V68.534H232.838V58.841ZM232.838 68.534H242.531V78.227H232.838V68.534ZM232.838 78.227H242.531V87.9199H232.838V78.227ZM232.838 39.4551H242.531V49.1481H232.838V39.4551ZM203.759 29.7621H213.452V39.4551H203.759V29.7621ZM213.452 29.7621H223.145V39.4551H213.452V29.7621ZM223.145 29.7621H232.838V39.4551H223.145V29.7621ZM223.145 20.0691H232.838V29.7621H223.145V20.0691ZM232.838 20.0691H242.531V29.7621H232.838V20.0691ZM232.838 29.7621H242.531V39.4551H232.838V29.7621ZM213.452 20.0691H223.145V29.7621H213.452V20.0691ZM184.373 0.683194H194.066V10.3762H184.373V0.683194ZM194.066 0.683194H203.759V10.3762H194.066V0.683194ZM194.066 10.3762H203.759V20.0691H194.066V10.3762ZM184.373 10.3762H194.066V20.0691H184.373V10.3762ZM203.759 87.9199H213.452V97.6129H203.759V87.9199ZM213.452 87.9199H223.145V97.6129H213.452V87.9199ZM223.145 87.9199H232.838V97.6129H223.145V87.9199ZM223.145 78.227H232.838V87.9199H223.145V78.227ZM213.452 78.227H223.145V87.9199H213.452V78.227ZM203.759 78.227H213.452V87.9199H203.759V78.227ZM261.942 29.7621H271.635V39.4551H261.942V29.7621ZM271.635 39.4551H281.328V49.1481H271.635V39.4551ZM261.942 39.4551H271.635V49.1481H261.942V39.4551ZM261.942 49.1481H271.635V58.841H261.942V49.1481ZM271.635 49.1481H281.328V58.841H271.635V49.1481ZM271.635 58.841H281.328V68.534H271.635V58.841ZM281.328 58.841H291.021V68.534H281.328V58.841ZM291.021 58.841H300.714V68.534H291.021V58.841ZM300.714 49.1481H310.407V58.841H300.714V49.1481ZM291.021 49.1481H300.714V58.841H291.021V49.1481ZM281.328 49.1481H291.021V58.841H281.328V49.1481ZM300.714 58.841H310.407V68.534H300.714V58.841ZM310.407 58.841H320.1V68.534H310.407V58.841ZM310.407 68.534H320.1V78.227H310.407V68.534ZM300.714 68.534H310.407V78.227H300.714V68.534ZM300.714 78.227H310.407V87.9199H300.714V78.227ZM310.407 78.227H320.1V87.9199H310.407V78.227ZM300.714 87.9199H310.407V97.6129H300.714V87.9199ZM291.021 78.227H300.714V87.9199H291.021V78.227ZM281.328 78.227H291.021V87.9199H281.328V78.227ZM271.635 78.227H281.328V87.9199H271.635V78.227ZM261.942 78.227H271.635V87.9199H261.942V78.227ZM271.635 87.9199H281.328V97.6129H271.635V87.9199ZM281.328 87.9199H291.021V97.6129H281.328V87.9199ZM291.021 87.9199H300.714V97.6129H291.021V87.9199ZM310.407 29.7621H320.1V39.4551H310.407V29.7621ZM300.714 29.7621H310.407V39.4551H300.714V29.7621ZM300.714 20.0691H310.407V29.7621H300.714V20.0691ZM291.021 20.0691H300.714V29.7621H291.021V20.0691ZM281.328 20.0691H291.021V29.7621H281.328V20.0691ZM271.635 20.0691H281.328V29.7621H271.635V20.0691ZM271.635 29.7621H281.328V39.4551H271.635V29.7621ZM281.328 29.7621H291.021V39.4551H281.328V29.7621ZM291.021 29.7621H300.714V39.4551H291.021V29.7621Z" fill="#00BFD3"/>
</svg>
