<svg width="17" height="17" viewBox="0 0 17 17" fill="none" xmlns="http://www.w3.org/2000/svg">
<circle cx="8.5" cy="8.5" r="8.5" fill="#8767D2"/>
<path d="M6.77778 11.875C6.33333 11.875 5.88889 11.4813 5.66667 11.3125C4.55556 10.525 4.22222 10.2438 4 10.075V12.4375C4 12.7486 4.24826 13 4.55556 13H9C9.30729 13 9.55556 12.7486 9.55556 12.4375V10.075C9.33333 10.2438 9 10.525 7.88889 11.3125C7.66667 11.4813 7.22222 11.875 6.77778 11.875ZM9 8.5H4.55556C4.24826 8.5 4 8.75137 4 9.0625V9.34375C4.44444 9.68125 4.38889 9.68125 6 10.8625C6.16667 10.975 6.5 11.3125 6.77778 11.3125C7.05556 11.3125 7.38889 10.975 7.55556 10.9188C9.16667 9.7375 9.11111 9.7375 9.55556 9.4V9.0625C9.55556 8.75137 9.30729 8.5 9 8.5ZM13.4444 6.8125H7.88889C7.5816 6.8125 7.33333 7.06387 7.33333 7.375V7.9375H9C9.57639 7.9375 10.0521 8.38398 10.1059 8.95352L10.1111 8.95V11.3125H13.4444C13.7517 11.3125 14 11.0611 14 10.75V7.375C14 7.06387 13.7517 6.8125 13.4444 6.8125ZM12.8889 9.0625H11.7778V7.9375H12.8889V9.0625ZM6.77778 7.375C6.77778 6.75449 7.27604 6.25 7.88889 6.25H11.7778V4.5625C11.7778 4.25137 11.5295 4 11.2222 4H5.66667C5.35938 4 5.11111 4.25137 5.11111 4.5625V7.9375H6.77778V7.375Z" fill="white"/>
</svg>
