<svg width="17" height="17" viewBox="0 0 17 17" fill="none" xmlns="http://www.w3.org/2000/svg">
<g clip-path="url(#clip0_322_3521)">
<circle cx="8.5" cy="8.5" r="8.5" fill="#8767D2"/>
<mask id="mask0_322_3521" style="mask-type:alpha" maskUnits="userSpaceOnUse" x="6" y="5" width="8" height="8">
<path d="M6.72754 11.8816V5.3896C6.72754 5.17443 6.90197 5 7.11714 5H10.8893C10.8893 5 14.0405 5 14.0001 8.72427C13.9611 12.3212 11.0957 12.2788 10.8998 12.2717C10.8923 12.2714 10.8855 12.2712 10.878 12.2712H7.11714C6.90197 12.2712 6.72754 12.0968 6.72754 11.8816Z" fill="#D9D9D9"/>
</mask>
<g mask="url(#mask0_322_3521)">
<rect x="6.72754" y="5" width="2.435" height="2.435" fill="white"/>
<path d="M6.72754 9.87012H9.16254V12.3051H6.72754V9.87012Z" fill="white"/>
<path d="M9.16211 5H11.5971V7.435H9.16211V5Z" fill="white"/>
<path d="M11.5977 7.43506H14.0327V9.87006H11.5977V7.43506Z" fill="white"/>
<path d="M9.16211 9.87012H11.5971V12.3051H9.16211V9.87012Z" fill="white"/>
<path d="M11.5977 9.87012H14.0327V12.3051H11.5977V9.87012Z" fill="white"/>
<path d="M11.5977 5H14.0327V7.435H11.5977V5Z" fill="white"/>
<path d="M11.5977 9.87012H14.0327V12.3051H11.5977V9.87012Z" fill="white"/>
<path d="M6.72754 7.43506H9.16254V9.87006H6.72754V7.43506Z" fill="white"/>
<path d="M9.16211 7.43506H11.5971V9.87006H9.16211V7.43506Z" fill="white"/>
</g>
<path d="M6.46777 8.07793H6.81841V7.37666H6.46777V8.07793ZM4.0003 7.37666C3.80665 7.37666 3.64967 7.53364 3.64967 7.72729C3.64967 7.92095 3.80665 8.07793 4.0003 8.07793V7.37666ZM6.46777 7.37666H4.0003V8.07793H6.46777V7.37666Z" fill="white"/>
<path d="M6.46777 9.92852H6.81841V9.22724H6.46777V9.92852ZM4.0003 9.22724C3.80665 9.22724 3.64967 9.38423 3.64967 9.57788C3.64967 9.77153 3.80665 9.92852 4.0003 9.92852V9.22724ZM6.46777 9.22724H4.0003V9.92852H6.46777V9.22724Z" fill="white"/>
</g>
<defs>
<clipPath id="clip0_322_3521">
<rect width="17" height="17" fill="white"/>
</clipPath>
</defs>
</svg>
