<svg width="12" height="14" viewBox="0 0 12 14" fill="none" xmlns="http://www.w3.org/2000/svg">
<path d="M10.7143 0.857178H1.28571C0.575893 0.857178 0 1.43307 0 2.14289V11.5715C0 12.2813 0.575893 12.8572 1.28571 12.8572H10.7143C11.4241 12.8572 12 12.2813 12 11.5715V2.14289C12 1.43307 11.4241 0.857178 10.7143 0.857178ZM10.7143 11.5715H1.28571V2.14289H10.7143V11.5715ZM9.75268 5.09736L5.12946 9.68307C5.00357 9.80896 4.8 9.80628 4.67411 9.68039L2.24196 7.2295C2.11607 7.10361 2.11875 6.90003 2.24464 6.77414L2.85268 6.17146C2.97857 6.04557 3.18214 6.04825 3.30804 6.17414L4.90982 7.78932L8.69732 4.03396C8.82321 3.90807 9.02679 3.91075 9.15268 4.03664L9.75536 4.64468C9.88125 4.77057 9.87857 4.97414 9.75268 5.10003V5.09736Z" fill="white"/>
</svg>
