<svg width="12" height="10" viewBox="0 0 12 10" fill="none" xmlns="http://www.w3.org/2000/svg">
<path d="M10.08 4.24873C10.1569 4.0481 10.2 3.82873 10.2 3.59998C10.2 2.60623 9.39375 1.79998 8.4 1.79998C8.03063 1.79998 7.68563 1.91248 7.40063 2.10373C6.88125 1.20373 5.91188 0.599976 4.8 0.599976C3.1425 0.599976 1.8 1.94248 1.8 3.59998C1.8 3.6506 1.80188 3.70123 1.80375 3.75185C0.75375 4.12123 0 5.12248 0 6.29998C0 7.7906 1.20938 8.99998 2.7 8.99998H9.6C10.9256 8.99998 12 7.9256 12 6.59998C12 5.43935 11.175 4.46998 10.08 4.24873Z" fill="white"/>
</svg>
