<svg
  width="19"
  height="21"
  viewBox="0 0 19 21"
  fill="none"
  xmlns="http://www.w3.org/2000/svg"
>
<g clip-path="url(#clip0_13_35)">
<path
      d="M1 19.4057V1.96875C1 1.60151 1.43231 1 2.375 1H16.625C17.5677 1 18 1.60151 18 1.96875V19.4057L9.93533 15.506L9.5 15.2955L9.06467 15.506L1 19.4057Z"
      stroke="#C09DFB"
      stroke-width="2"
    />
<g clip-path="url(#clip1_13_35)">
<path
        d="M9.05157 4.2782L8.03126 6.34695L5.74844 6.67976C5.33907 6.73914 5.17501 7.24383 5.47188 7.53289L7.12344 9.14226L6.73282 11.4157C6.66251 11.8266 7.09532 12.1345 7.45782 11.9423L9.50001 10.8688L11.5422 11.9423C11.9047 12.1329 12.3375 11.8266 12.2672 11.4157L11.8766 9.14226L13.5281 7.53289C13.825 7.24383 13.6609 6.73914 13.2516 6.67976L10.9688 6.34695L9.94844 4.2782C9.76563 3.90945 9.23594 3.90476 9.05157 4.2782Z"
        fill="#C09DFB"
      />
</g>
</g>
<defs>
<clipPath id="clip0_13_35">
<rect width="19" height="21" fill="white" />
</clipPath>
<clipPath id="clip1_13_35">
<rect width="9" height="8" fill="white" transform="translate(5 4)" />
</clipPath>
</defs>
</svg>
