<svg width="17" height="17" viewBox="0 0 17 17" fill="none" xmlns="http://www.w3.org/2000/svg">
<circle cx="8.5" cy="8.5" r="8.5" fill="white"/>
<path d="M5.414 13.178C5.192 13.178 4.991 13.13 4.811 13.034C4.631 12.944 4.49 12.815 4.388 12.647C4.286 12.479 4.235 12.281 4.235 12.053C4.235 11.951 4.244 11.858 4.262 11.774C4.28 11.696 4.301 11.627 4.325 11.567L4.973 11.774C4.961 11.816 4.952 11.855 4.946 11.891C4.94 11.927 4.937 11.969 4.937 12.017C4.937 12.113 4.955 12.2 4.991 12.278C5.027 12.356 5.078 12.416 5.144 12.458C5.216 12.5 5.297 12.521 5.387 12.521C5.579 12.521 5.726 12.437 5.828 12.269C5.936 12.101 6.02 11.87 6.08 11.576L7.106 6.779H6.269L6.332 6.446L7.232 6.149L7.331 5.717C7.403 5.411 7.487 5.156 7.583 4.952C7.679 4.742 7.79 4.577 7.916 4.457C8.048 4.331 8.201 4.244 8.375 4.196C8.549 4.142 8.747 4.115 8.969 4.115C9.119 4.115 9.272 4.133 9.428 4.169C9.59 4.199 9.719 4.238 9.815 4.286L9.608 4.889C9.524 4.859 9.431 4.832 9.329 4.808C9.233 4.778 9.125 4.763 9.005 4.763C8.771 4.763 8.588 4.829 8.456 4.961C8.324 5.093 8.213 5.345 8.123 5.717L8.015 6.176H9.05L8.933 6.779H7.898L6.872 11.585C6.8 11.915 6.704 12.2 6.584 12.44C6.47 12.68 6.317 12.863 6.125 12.989C5.939 13.115 5.702 13.178 5.414 13.178ZM10.6714 7.031C10.8754 7.001 11.0824 7.031 11.2924 7.121C11.4544 7.193 11.5774 7.295 11.6614 7.427L11.6974 7.472L11.7334 7.418C11.8834 7.238 12.0664 7.115 12.2824 7.049C12.5464 6.977 12.7864 7.025 13.0024 7.193C13.0444 7.223 13.0804 7.256 13.1104 7.292C13.1824 7.376 13.2304 7.475 13.2544 7.589C13.3144 7.787 13.2994 7.982 13.2094 8.174C13.1134 8.378 12.9514 8.492 12.7234 8.516C12.5314 8.534 12.3994 8.465 12.3274 8.309C12.3094 8.279 12.2974 8.231 12.2914 8.165C12.2914 8.063 12.3124 7.97 12.3544 7.886C12.4024 7.778 12.4894 7.691 12.6154 7.625C12.6694 7.601 12.6964 7.583 12.6964 7.571C12.6724 7.535 12.6304 7.502 12.5704 7.472C12.5404 7.46 12.4954 7.454 12.4354 7.454C12.3754 7.454 12.3304 7.46 12.3004 7.472C12.1504 7.556 12.0334 7.715 11.9494 7.949L11.4274 10.028C11.3854 10.214 11.3764 10.352 11.4004 10.442C11.4484 10.604 11.5774 10.682 11.7874 10.676C11.8594 10.67 11.9284 10.655 11.9944 10.631C12.2344 10.541 12.4324 10.334 12.5884 10.01C12.6304 9.926 12.6634 9.842 12.6874 9.758C12.7114 9.68 12.7384 9.638 12.7684 9.632C12.7864 9.626 12.8494 9.623 12.9574 9.623C13.0894 9.623 13.1614 9.629 13.1734 9.641C13.2034 9.665 13.2064 9.716 13.1824 9.794C13.1344 9.992 13.0504 10.175 12.9304 10.343C12.6184 10.799 12.2374 11.051 11.7874 11.099C11.7754 11.099 11.7634 11.099 11.7514 11.099C11.4034 11.117 11.1244 11.003 10.9144 10.757C10.9024 10.751 10.8934 10.742 10.8874 10.73C10.8514 10.688 10.8304 10.664 10.8244 10.658L10.7704 10.721C10.6864 10.817 10.6024 10.889 10.5184 10.937C10.3384 11.051 10.1614 11.105 9.98741 11.099C9.87341 11.093 9.75941 11.063 9.64541 11.009C9.45341 10.919 9.32741 10.757 9.26741 10.523C9.20141 10.223 9.25541 9.974 9.42941 9.776C9.59741 9.614 9.78041 9.563 9.97841 9.623C10.0504 9.647 10.1074 9.683 10.1494 9.731C10.2634 9.857 10.2694 10.025 10.1674 10.235C10.1134 10.349 10.0294 10.436 9.91541 10.496C9.86141 10.526 9.83141 10.541 9.82541 10.541C9.82541 10.565 9.87041 10.601 9.96041 10.649C9.98441 10.661 10.0264 10.667 10.0864 10.667C10.1464 10.667 10.1914 10.661 10.2214 10.649C10.3714 10.571 10.4854 10.415 10.5634 10.181L11.1034 8.057C11.1154 7.997 11.1214 7.913 11.1214 7.805C11.1214 7.721 11.1154 7.664 11.1034 7.634C11.0314 7.478 10.8784 7.421 10.6444 7.463C10.4224 7.505 10.2244 7.655 10.0504 7.913C9.94841 8.075 9.87341 8.243 9.82541 8.417C9.80741 8.453 9.79541 8.474 9.78941 8.48C9.77741 8.492 9.70541 8.498 9.57341 8.498H9.37541L9.34841 8.471C9.33041 8.453 9.32141 8.429 9.32141 8.399C9.34541 8.243 9.42941 8.054 9.57341 7.832C9.57941 7.82 9.58541 7.808 9.59141 7.796C9.85541 7.382 10.1944 7.13 10.6084 7.04C10.6324 7.04 10.6534 7.037 10.6714 7.031Z" fill="#53389F"/>
</svg>
