<svg
  width="19"
  height="19"
  viewBox="0 0 19 19"
  fill="none"
  xmlns="http://www.w3.org/2000/svg"
>
<g clip-path="url(#clip0_13_31)">
<path
      d="M1.78125 1.78125C1.42895 1.78125 1.08457 1.88572 0.791641 2.08144C0.498716 2.27717 0.270409 2.55536 0.13559 2.88085C0.000771791 3.20633 -0.0345029 3.56448 0.034227 3.91C0.102957 4.25553 0.272605 4.57292 0.521717 4.82203C0.770829 5.07115 1.08822 5.24079 1.43375 5.30952C1.77927 5.37825 2.13742 5.34298 2.46291 5.20816C2.78839 5.07334 3.06658 4.84503 3.26231 4.55211C3.45803 4.25918 3.5625 3.9148 3.5625 3.5625C3.5625 3.09008 3.37483 2.63702 3.04078 2.30297C2.70674 1.96892 2.25367 1.78125 1.78125 1.78125ZM1.78125 7.71875C1.42895 7.71875 1.08457 7.82322 0.791641 8.01894C0.498716 8.21467 0.270409 8.49286 0.13559 8.81835C0.000771791 9.14383 -0.0345029 9.50198 0.034227 9.84751C0.102957 10.193 0.272605 10.5104 0.521717 10.7595C0.770829 11.0086 1.08822 11.1783 1.43375 11.247C1.77927 11.3158 2.13742 11.2805 2.46291 11.1457C2.78839 11.0108 3.06658 10.7825 3.26231 10.4896C3.45803 10.1967 3.5625 9.8523 3.5625 9.5C3.5625 9.02758 3.37483 8.57451 3.04078 8.24047C2.70674 7.90642 2.25367 7.71875 1.78125 7.71875ZM1.78125 13.6562C1.42895 13.6562 1.08457 13.7607 0.791641 13.9564C0.498716 14.1522 0.270409 14.4304 0.13559 14.7558C0.000771791 15.0813 -0.0345029 15.4395 0.034227 15.785C0.102957 16.1305 0.272605 16.4479 0.521717 16.697C0.770829 16.9461 1.08822 17.1158 1.43375 17.1845C1.77927 17.2533 2.13742 17.218 2.46291 17.0832C2.78839 16.9483 3.06658 16.72 3.26231 16.4271C3.45803 16.1342 3.5625 15.7898 3.5625 15.4375C3.5625 14.9651 3.37483 14.512 3.04078 14.178C2.70674 13.8439 2.25367 13.6563 1.78125 13.6562ZM18.4063 14.25H6.53125C6.37378 14.25 6.22276 14.3126 6.11141 14.4239C6.00006 14.5353 5.9375 14.6863 5.9375 14.8438V16.0312C5.9375 16.1887 6.00006 16.3397 6.11141 16.4511C6.22276 16.5624 6.37378 16.625 6.53125 16.625H18.4063C18.5637 16.625 18.7147 16.5624 18.8261 16.4511C18.9374 16.3397 19 16.1887 19 16.0312V14.8438C19 14.6863 18.9374 14.5353 18.8261 14.4239C18.7147 14.3126 18.5637 14.25 18.4063 14.25ZM18.4063 2.375H6.53125C6.37378 2.375 6.22276 2.43756 6.11141 2.54891C6.00006 2.66026 5.9375 2.81128 5.9375 2.96875V4.15625C5.9375 4.31372 6.00006 4.46474 6.11141 4.57609C6.22276 4.68744 6.37378 4.75 6.53125 4.75H18.4063C18.5637 4.75 18.7147 4.68744 18.8261 4.57609C18.9374 4.46474 19 4.31372 19 4.15625V2.96875C19 2.81128 18.9374 2.66026 18.8261 2.54891C18.7147 2.43756 18.5637 2.375 18.4063 2.375ZM18.4063 8.3125H6.53125C6.37378 8.3125 6.22276 8.37506 6.11141 8.48641C6.00006 8.59776 5.9375 8.74878 5.9375 8.90625V10.0938C5.9375 10.2512 6.00006 10.4022 6.11141 10.5136C6.22276 10.6249 6.37378 10.6875 6.53125 10.6875H18.4063C18.5637 10.6875 18.7147 10.6249 18.8261 10.5136C18.9374 10.4022 19 10.2512 19 10.0938V8.90625C19 8.74878 18.9374 8.59776 18.8261 8.48641C18.7147 8.37506 18.5637 8.3125 18.4063 8.3125Z"
      fill="#C09DFB"
    />
</g>
<defs>
<clipPath id="clip0_13_31">
<rect width="19" height="19" fill="white" />
</clipPath>
</defs>
</svg>
