<svg width="34" height="34" viewBox="0 0 34 34" fill="none" xmlns="http://www.w3.org/2000/svg">
<rect width="34" height="34" fill="white"/>
<path d="M6.60511 13.7273V21H5.76705V13.7273H6.60511ZM10.356 21.1136C9.86358 21.1136 9.43152 20.9964 9.05984 20.7621C8.69052 20.5277 8.40169 20.1998 8.19336 19.7784C7.98739 19.357 7.88441 18.8646 7.88441 18.3011C7.88441 17.733 7.98739 17.237 8.19336 16.8132C8.40169 16.3894 8.69052 16.0604 9.05984 15.826C9.43152 15.5916 9.86358 15.4744 10.356 15.4744C10.8484 15.4744 11.2793 15.5916 11.6486 15.826C12.0203 16.0604 12.3091 16.3894 12.5151 16.8132C12.7234 17.237 12.8276 17.733 12.8276 18.3011C12.8276 18.8646 12.7234 19.357 12.5151 19.7784C12.3091 20.1998 12.0203 20.5277 11.6486 20.7621C11.2793 20.9964 10.8484 21.1136 10.356 21.1136ZM10.356 20.3608C10.7301 20.3608 11.0378 20.2649 11.2793 20.0732C11.5208 19.8814 11.6995 19.6293 11.8155 19.3168C11.9315 19.0043 11.9895 18.6657 11.9895 18.3011C11.9895 17.9366 11.9315 17.5968 11.8155 17.282C11.6995 16.9671 11.5208 16.7126 11.2793 16.5185C11.0378 16.3243 10.7301 16.2273 10.356 16.2273C9.98195 16.2273 9.67418 16.3243 9.43271 16.5185C9.19123 16.7126 9.01249 16.9671 8.89648 17.282C8.78048 17.5968 8.72248 17.9366 8.72248 18.3011C8.72248 18.6657 8.78048 19.0043 8.89648 19.3168C9.01249 19.6293 9.19123 19.8814 9.43271 20.0732C9.67418 20.2649 9.98195 20.3608 10.356 20.3608ZM16.3086 23.1591C15.9038 23.1591 15.5558 23.107 15.2646 23.0028C14.9734 22.901 14.7307 22.7661 14.5366 22.598C14.3448 22.4323 14.1921 22.2547 14.0785 22.0653L14.7461 21.5966C14.8219 21.696 14.9177 21.8097 15.0337 21.9375C15.1497 22.0677 15.3084 22.1802 15.5096 22.2749C15.7132 22.3719 15.9795 22.4205 16.3086 22.4205C16.7489 22.4205 17.1123 22.3139 17.3988 22.1009C17.6853 21.8878 17.8285 21.554 17.8285 21.0994V19.9915H17.7575C17.6959 20.0909 17.6083 20.214 17.4947 20.3608C17.3834 20.5052 17.2224 20.6342 17.0117 20.7479C16.8034 20.8591 16.5217 20.9148 16.1665 20.9148C15.7262 20.9148 15.3308 20.8106 14.9805 20.6023C14.6325 20.3939 14.3567 20.0909 14.1531 19.6932C13.9518 19.2955 13.8512 18.8125 13.8512 18.2443C13.8512 17.6856 13.9495 17.1991 14.146 16.7848C14.3424 16.3681 14.6159 16.0462 14.9663 15.8189C15.3166 15.5893 15.7215 15.4744 16.1808 15.4744C16.5359 15.4744 16.8176 15.5336 17.0259 15.652C17.2366 15.768 17.3976 15.9006 17.5089 16.0497C17.6225 16.1965 17.7101 16.3172 17.7717 16.4119H17.8569V15.5455H18.6665V21.1562C18.6665 21.625 18.56 22.0062 18.3469 22.2997C18.1362 22.5956 17.8522 22.8123 17.4947 22.9496C17.1396 23.0893 16.7442 23.1591 16.3086 23.1591ZM16.2802 20.1619C16.6164 20.1619 16.9004 20.085 17.1325 19.9311C17.3645 19.7772 17.5408 19.5559 17.6616 19.267C17.7823 18.9782 17.8427 18.6326 17.8427 18.2301C17.8427 17.8371 17.7835 17.4903 17.6651 17.1896C17.5468 16.889 17.3716 16.6534 17.1396 16.483C16.9076 16.3125 16.6211 16.2273 16.2802 16.2273C15.9251 16.2273 15.6291 16.3172 15.3924 16.4972C15.158 16.6771 14.9817 16.9186 14.8633 17.2216C14.7473 17.5246 14.6893 17.8608 14.6893 18.2301C14.6893 18.6089 14.7485 18.9439 14.8668 19.2351C14.9876 19.5239 15.1651 19.7512 15.3995 19.9169C15.6362 20.0803 15.9298 20.1619 16.2802 20.1619ZM20.2006 21V15.5455H21.0387V21H20.2006ZM20.6268 14.6364C20.4634 14.6364 20.3226 14.5807 20.2042 14.4695C20.0882 14.3582 20.0302 14.2244 20.0302 14.0682C20.0302 13.9119 20.0882 13.7782 20.2042 13.6669C20.3226 13.5556 20.4634 13.5 20.6268 13.5C20.7901 13.5 20.9298 13.5556 21.0458 13.6669C21.1642 13.7782 21.2234 13.9119 21.2234 14.0682C21.2234 14.2244 21.1642 14.3582 21.0458 14.4695C20.9298 14.5807 20.7901 14.6364 20.6268 14.6364ZM23.4118 17.7188V21H22.5737V15.5455H23.3833V16.3977H23.4544C23.5822 16.1207 23.7763 15.8982 24.0368 15.7301C24.2972 15.5597 24.6333 15.4744 25.0453 15.4744C25.4146 15.4744 25.7377 15.5502 26.0147 15.7017C26.2917 15.8509 26.5072 16.0781 26.661 16.3835C26.8149 16.6866 26.8919 17.0701 26.8919 17.5341V21H26.0538V17.5909C26.0538 17.1624 25.9425 16.8286 25.72 16.5895C25.4975 16.348 25.1921 16.2273 24.8038 16.2273C24.5363 16.2273 24.2972 16.2853 24.0865 16.4013C23.8781 16.5173 23.7136 16.6866 23.5929 16.9091C23.4721 17.1316 23.4118 17.4015 23.4118 17.7188Z" fill="#53389F"/>
</svg>
