<svg width="345" height="345" viewBox="0 0 345 345" fill="none" xmlns="http://www.w3.org/2000/svg">

<rect x="113" y="176" width="8" height="8" fill="#18808B" />
<rect x="113" y="168" width="8" height="8" fill="#18808B" />
<rect x="113" y="160" width="8" height="8" fill="#18808B" />
<rect x="113" y="152" width="8" height="8" fill="#18808B" />
<rect x="113" y="144" width="8" height="8" fill="#18808B" />
<rect x="113" y="136" width="8" height="8" fill="#18808B" />
<rect x="113" y="128" width="8" height="8" fill="#18808B" />
<rect x="113" y="120" width="8" height="8" fill="#18808B" />
<rect x="113" y="112" width="8" height="8" fill="#18808B" />
<rect x="113" y="104" width="8" height="8" fill="#18808B" />
<rect x="113" y="96" width="8" height="8" fill="#18808B" />
<rect x="113" y="88" width="8" height="8" fill="#18808B" />
<rect x="113" y="80" width="8" height="8" fill="#18808B" />
<rect x="113" y="72" width="8" height="8" fill="#18808B" />
<rect x="113" y="184" width="8" height="8" fill="#18808B" />
<rect x="113" y="192" width="8" height="8" fill="#18808B" />
<rect x="113" y="200" width="8" height="8" fill="#18808B" />
<rect x="113" y="208" width="8" height="8" fill="#18808B" />
<rect x="113" y="216" width="8" height="8" fill="#18808B" />
<rect x="113" y="224" width="8" height="8" fill="#18808B" />
<rect x="113" y="232" width="8" height="8" fill="#18808B" />
<rect x="113" y="240" width="8" height="8" fill="#18808B" />
<rect x="113" y="248" width="8" height="8" fill="#18808B" />
<rect x="113" y="256" width="8" height="8" fill="#18808B" />
<rect x="225" y="176" width="8" height="8" fill="#18808B" />
<rect x="225" y="168" width="8" height="8" fill="#18808B" />
<rect x="225" y="160" width="8" height="8" fill="#18808B" />
<rect x="225" y="152" width="8" height="8" fill="#18808B" />
<rect x="225" y="144" width="8" height="8" fill="#18808B" />
<rect x="225" y="136" width="8" height="8" fill="#18808B" />
<rect x="225" y="128" width="8" height="8" fill="#18808B" />
<rect x="225" y="120" width="8" height="8" fill="#18808B" />
<rect x="225" y="112" width="8" height="8" fill="#18808B" />
<rect x="225" y="104" width="8" height="8" fill="#18808B" />
<rect x="225" y="96" width="8" height="8" fill="#18808B" />
<rect x="225" y="88" width="8" height="8" fill="#18808B" />
<rect x="225" y="80" width="8" height="8" fill="#18808B" />
<rect x="225" y="72" width="8" height="8" fill="#18808B" />
<rect x="225" y="184" width="8" height="8" fill="#18808B" />
<rect x="225" y="192" width="8" height="8" fill="#18808B" />
<rect x="225" y="200" width="8" height="8" fill="#18808B" />
<rect x="225" y="208" width="8" height="8" fill="#18808B" />
<rect x="225" y="216" width="8" height="8" fill="#18808B" />
<rect x="225" y="224" width="8" height="8" fill="#18808B" />
<rect x="225" y="232" width="8" height="8" fill="#18808B" />
<rect x="225" y="240" width="8" height="8" fill="#18808B" />
<rect x="225" y="248" width="8" height="8" fill="#18808B" />
<rect x="225" y="256" width="8" height="8" fill="#18808B" />
<rect x="121" y="256" width="8" height="8" fill="#18808B" />
<rect x="121" y="264" width="8" height="8" fill="#18808B" />
<rect x="129" y="264" width="8" height="8" fill="#18808B" />
<rect x="129" y="272" width="8" height="8" fill="#18808B" />
<rect x="137" y="272" width="8" height="8" fill="#18808B" />
<rect x="137" y="280" width="8" height="8" fill="#18808B" />
<rect x="145" y="280" width="8" height="8" fill="#18808B" />
<rect x="153" y="280" width="8" height="8" fill="#18808B" />
<rect x="153" y="288" width="8" height="8" fill="#18808B" />
<rect x="161" y="280" width="8" height="8" fill="#18808B" />
<rect x="169" y="280" width="8" height="8" fill="#18808B" />
<rect x="161" y="288" width="8" height="8" fill="#18808B" />
<rect x="169" y="288" width="8" height="8" fill="#18808B" />
<rect x="201" y="280" width="8" height="8" fill="#18808B" />
<rect x="177" y="288" width="8" height="8" fill="#18808B" />
<rect x="185" y="288" width="8" height="8" fill="#18808B" />
<rect x="177" y="280" width="8" height="8" fill="#18808B" />
<rect x="217" y="256" width="8" height="8" fill="#18808B" />
<rect x="217" y="264" width="8" height="8" fill="#18808B" />
<rect x="209" y="264" width="8" height="8" fill="#18808B" />
<rect x="209" y="272" width="8" height="8" fill="#18808B" />
<rect x="201" y="272" width="8" height="8" fill="#18808B" />
<rect x="185" y="280" width="8" height="8" fill="#18808B" />
<rect x="193" y="280" width="8" height="8" fill="#18808B" />
<rect x="121" y="90" width="8" height="8" fill="#18808B" />
<rect x="129" y="98" width="8" height="8" fill="#18808B" />
<rect x="137" y="98" width="8" height="8" fill="#18808B" />
<rect x="145" y="106" width="8" height="8" fill="#18808B" />
<rect x="153" y="106" width="8" height="8" fill="#18808B" />
<rect x="161" y="106" width="8" height="8" fill="#18808B" />
<rect x="217" y="90" width="8" height="8" fill="#18808B" />
<rect x="209" y="98" width="8" height="8" fill="#18808B" />
<rect x="193" y="106" width="8" height="8" fill="#18808B" />
<rect x="201" y="98" width="8" height="8" fill="#18808B" />
<rect x="185" y="106" width="8" height="8" fill="#18808B" />
<rect x="177" y="106" width="8" height="8" fill="#18808B" />
<rect x="169" y="106" width="8" height="8" fill="#18808B" />
<rect x="121" y="72" width="8" height="8" fill="#18808B" />
<rect x="129" y="80" width="8" height="8" fill="#18808B" />
<rect x="137" y="80" width="8" height="8" fill="#18808B" />
<rect x="145" y="88" width="8" height="8" fill="#18808B" />
<rect x="153" y="88" width="8" height="8" fill="#18808B" />
<rect x="161" y="88" width="8" height="8" fill="#18808B" />
<rect x="217" y="72" width="8" height="8" fill="#18808B" />
<rect x="209" y="80" width="8" height="8" fill="#18808B" />
<rect x="193" y="88" width="8" height="8" fill="#18808B" />
<rect x="201" y="80" width="8" height="8" fill="#18808B" />
<rect x="185" y="88" width="8" height="8" fill="#18808B" />
<rect x="177" y="88" width="8" height="8" fill="#18808B" />
<rect x="169" y="88" width="8" height="8" fill="#18808B" />
<rect width="8" height="8" transform="matrix(1 0 0 -1 121 72)" fill="#18808B" />
<rect width="8" height="8" transform="matrix(1 0 0 -1 129 64)" fill="#18808B" />
<rect width="8" height="8" transform="matrix(1 0 0 -1 137 64)" fill="#18808B" />
<rect width="8" height="8" transform="matrix(1 0 0 -1 145 56)" fill="#18808B" />
<rect width="8" height="8" transform="matrix(1 0 0 -1 153 56)" fill="#18808B" />
<rect width="8" height="8" transform="matrix(1 0 0 -1 161 56)" fill="#18808B" />
<rect width="8" height="8" transform="matrix(1 0 0 -1 217 72)" fill="#18808B" />
<rect width="8" height="8" transform="matrix(1 0 0 -1 209 64)" fill="#18808B" />
<rect width="8" height="8" transform="matrix(1 0 0 -1 193 56)" fill="#18808B" />
<rect width="8" height="8" transform="matrix(1 0 0 -1 201 64)" fill="#18808B" />
<rect width="8" height="8" transform="matrix(1 0 0 -1 185 56)" fill="#18808B" />
<rect width="8" height="8" transform="matrix(1 0 0 -1 177 56)" fill="#18808B" />
<rect width="8" height="8" transform="matrix(1 0 0 -1 169 56)" fill="#18808B" />
<path
    d="M140 182H156V190H164V198H172V190H180V182H204V246.5H196.5V254H188.5V262H156V254H148V246.5H140V182Z"
    fill="#00BFD3"
  />
<path
    fill-rule="evenodd"
    clip-rule="evenodd"
    d="M140 174H148H156V182H148H140V174ZM164 198H156H148H140V190V182H132V190V198V206V214V222V230V238V246V254H140V262H148V270H156H164H172H180H188H196V262H204V254H212V246V238V230V222V214V206V198V190V182H204V174H196H188H180V182H172V190H164V182H156V190H164V198ZM204 190V198V206V214V222V230V238V246H196V254H188V262H180H172H164H156V254H148V246H140V238V230V222V214V206H148V214H156V206H164V198H172V190H180V182H188H196V190H204Z"
    fill="#006081"
  />
<rect x="164" y="198" width="8" height="8" fill="#006081" />
<rect x="172" y="190" width="8" height="8" fill="#006081" />
<rect x="156" y="206" width="8" height="8" fill="#006081" />
</svg>
