<svg width="13" height="9" viewBox="0 0 13 9" fill="none" xmlns="http://www.w3.org/2000/svg">
<mask id="mask0_311_3082" style="mask-type:alpha" maskUnits="userSpaceOnUse" x="4" y="0" width="9" height="9">
<path d="M4.27246 8.25787V0.467517C4.27246 0.209315 4.48178 0 4.73998 0H9.26652C9.26652 0 13.0479 0 12.9995 4.4691C12.9526 8.78536 9.51428 8.73446 9.27916 8.72594C9.27017 8.72561 9.26202 8.72538 9.25303 8.72538H4.73998C4.48178 8.72538 4.27246 8.51607 4.27246 8.25787Z" fill="#D9D9D9"/>
</mask>
<g mask="url(#mask0_311_3082)">
<rect x="4.27246" width="2.92198" height="2.92198" fill="white"/>
<path d="M4.27246 5.84399H7.19445V8.76598H4.27246V5.84399Z" fill="white"/>
<path d="M7.19434 0H10.1163V2.92198H7.19434V0Z" fill="white"/>
<path d="M10.1165 2.922H13.0384V5.84398H10.1165V2.922Z" fill="white"/>
<path d="M7.19434 5.84399H10.1163V8.76598H7.19434V5.84399Z" fill="white"/>
<path d="M10.1165 5.84399H13.0384V8.76598H10.1165V5.84399Z" fill="white"/>
<path d="M10.1165 0H13.0384V2.92198H10.1165V0Z" fill="white"/>
<path d="M10.1165 5.84399H13.0384V8.76598H10.1165V5.84399Z" fill="white"/>
<path d="M4.27246 2.922H7.19445V5.84398H4.27246V2.922Z" fill="white"/>
<path d="M7.19434 2.922H10.1163V5.84398H7.19434V2.922Z" fill="white"/>
</g>
<path d="M3.96094 3.62334H4.31158V2.92207H3.96094V3.62334ZM0.999993 2.92207C0.806341 2.92207 0.649355 3.07905 0.649355 3.27271C0.649355 3.46636 0.806341 3.62334 0.999993 3.62334V2.92207ZM3.96094 2.92207L0.999993 2.92207V3.62334L3.96094 3.62334V2.92207Z" fill="white"/>
<path d="M3.96094 5.84405H4.31158V5.14277H3.96094V5.84405ZM0.999993 5.14277C0.806341 5.14277 0.649355 5.29976 0.649355 5.49341C0.649355 5.68706 0.806341 5.84405 0.999993 5.84405V5.14277ZM3.96094 5.14277H0.999993V5.84405H3.96094V5.14277Z" fill="white"/>
</svg>
