<svg
  width="19"
  height="19"
  viewBox="0 0 19 19"
  fill="none"
  xmlns="http://www.w3.org/2000/svg"
>
<path
    d="M12.35 11.875H13.775C14.0125 11.875 14.25 11.6375 14.25 11.4V6.4125C14.25 6.175 14.0125 5.9375 13.775 5.9375H12.35C12.1125 5.9375 11.875 6.175 11.875 6.4125V11.4C11.875 11.6375 12.1125 11.875 12.35 11.875ZM15.9125 11.875H17.3375C17.575 11.875 17.8125 11.6375 17.8125 11.4V2.85C17.8125 2.6125 17.575 2.375 17.3375 2.375H15.9125C15.675 2.375 15.4375 2.6125 15.4375 2.85V11.4C15.4375 11.6375 15.675 11.875 15.9125 11.875ZM5.225 11.875H6.65C6.8875 11.875 7.125 11.6375 7.125 11.4V8.7875C7.125 8.55 6.8875 8.3125 6.65 8.3125H5.225C4.9875 8.3125 4.75 8.55 4.75 8.7875V11.4C4.75 11.6375 4.9875 11.875 5.225 11.875ZM8.7875 11.875H10.2125C10.45 11.875 10.6875 11.6375 10.6875 11.4V4.0375C10.6875 3.8 10.45 3.5625 10.2125 3.5625H8.7875C8.55 3.5625 8.3125 3.8 8.3125 4.0375V11.4C8.3125 11.6375 8.55 11.875 8.7875 11.875ZM18.4062 14.25H2.375V2.96875C2.375 2.64219 2.10781 2.375 1.78125 2.375H0.59375C0.267187 2.375 0 2.64219 0 2.96875V15.4375C0 16.0943 0.530664 16.625 1.1875 16.625H18.4062C18.7328 16.625 19 16.3578 19 16.0312V14.8438C19 14.5172 18.7328 14.25 18.4062 14.25Z"
    fill="#C09DFB"
  />
</svg>
