<svg width="12" height="12" viewBox="0 0 12 12" fill="none" xmlns="http://www.w3.org/2000/svg">
<path d="M3.49922 5.0625V6.9375C3.49922 7.24922 3.24844 7.5 2.93672 7.5H0.5625C0.250781 7.5 0 7.24922 0 6.9375V5.0625C0 4.75078 0.250781 4.5 0.5625 4.5H2.93672C3.24844 4.5 3.49922 4.75078 3.49922 5.0625ZM0 8.8125V10.6875C0 10.9992 0.250781 11.25 0.5625 11.25H2.93672C3.24844 11.25 3.49922 10.9992 3.49922 10.6875V8.8125C3.49922 8.50078 3.24844 8.25 2.93672 8.25H0.5625C0.250781 8.25 0 8.50078 0 8.8125ZM2.93672 0.75H0.5625C0.250781 0.75 0 1.00078 0 1.3125V3.1875C0 3.49922 0.250781 3.75 0.5625 3.75H2.93672C3.24844 3.75 3.49922 3.49922 3.49922 3.1875V1.3125C3.49922 1.00078 3.24844 0.75 2.93672 0.75ZM4.81172 11.25H11.4375C11.7492 11.25 12 10.9992 12 10.6875V8.8125C12 8.50078 11.7492 8.25 11.4375 8.25H4.81172C4.5 8.25 4.24922 8.50078 4.24922 8.8125V10.6875C4.24922 10.9992 4.5 11.25 4.81172 11.25ZM4.24922 1.3125V3.1875C4.24922 3.49922 4.5 3.75 4.81172 3.75H11.4375C11.7492 3.75 12 3.49922 12 3.1875V1.3125C12 1.00078 11.7492 0.75 11.4375 0.75H4.81172C4.5 0.75 4.24922 1.00078 4.24922 1.3125ZM4.81172 7.5H11.4375C11.7492 7.5 12 7.24922 12 6.9375V5.0625C12 4.75078 11.7492 4.5 11.4375 4.5H4.81172C4.5 4.5 4.24922 4.75078 4.24922 5.0625V6.9375C4.24922 7.24922 4.5 7.5 4.81172 7.5Z" fill="white"/>
</svg>
