<svg width="12" height="14" viewBox="0 0 12 14" fill="none" xmlns="http://www.w3.org/2000/svg">
<g clip-path="url(#clip0_2028_20884)">
<path d="M4.56696 1.41094L4.05804 2.1875H7.94196L7.43304 1.41094C7.39286 1.35078 7.32589 1.3125 7.25357 1.3125H4.74375C4.67143 1.3125 4.60446 1.34805 4.56429 1.41094H4.56696ZM8.50446 0.683594L9.4875 2.1875H9.85714H11.1429H11.3571C11.7134 2.1875 12 2.48008 12 2.84375C12 3.20742 11.7134 3.5 11.3571 3.5H11.1429V11.8125C11.1429 13.0211 10.1839 14 9 14H3C1.81607 14 0.857143 13.0211 0.857143 11.8125V3.5H0.642857C0.286607 3.5 0 3.20742 0 2.84375C0 2.48008 0.286607 2.1875 0.642857 2.1875H0.857143H2.14286H2.5125L3.49554 0.680859C3.77411 0.257031 4.24286 0 4.74375 0H7.25357C7.75446 0 8.22321 0.257031 8.50179 0.680859L8.50446 0.683594ZM2.14286 3.5V11.8125C2.14286 12.2965 2.52589 12.6875 3 12.6875H9C9.47411 12.6875 9.85714 12.2965 9.85714 11.8125V3.5H2.14286ZM4.28571 5.25V10.9375C4.28571 11.1781 4.09286 11.375 3.85714 11.375C3.62143 11.375 3.42857 11.1781 3.42857 10.9375V5.25C3.42857 5.00937 3.62143 4.8125 3.85714 4.8125C4.09286 4.8125 4.28571 5.00937 4.28571 5.25ZM6.42857 5.25V10.9375C6.42857 11.1781 6.23571 11.375 6 11.375C5.76429 11.375 5.57143 11.1781 5.57143 10.9375V5.25C5.57143 5.00937 5.76429 4.8125 6 4.8125C6.23571 4.8125 6.42857 5.00937 6.42857 5.25ZM8.57143 5.25V10.9375C8.57143 11.1781 8.37857 11.375 8.14286 11.375C7.90714 11.375 7.71429 11.1781 7.71429 10.9375V5.25C7.71429 5.00937 7.90714 4.8125 8.14286 4.8125C8.37857 4.8125 8.57143 5.00937 8.57143 5.25Z" fill="#00BFD3"/>
</g>
<defs>
<clipPath id="clip0_2028_20884">
<rect width="12" height="14" fill="white"/>
</clipPath>
</defs>
</svg>
