<svg
  width="19"
  height="20"
  viewBox="0 0 19 20"
  fill="none"
  xmlns="http://www.w3.org/2000/svg"
>
<g clip-path="url(#clip0_13_33)">
<path
      d="M9.5 0.306396C4.25202 0.306396 0 4.55841 0 9.8064C0 15.0544 4.25202 19.3064 9.5 19.3064C14.748 19.3064 19 15.0544 19 9.8064C19 4.55841 14.748 0.306396 9.5 0.306396ZM9.5 3.98382C11.3617 3.98382 12.871 5.49309 12.871 7.35478C12.871 9.21648 11.3617 10.7258 9.5 10.7258C7.63831 10.7258 6.12903 9.21648 6.12903 7.35478C6.12903 5.49309 7.63831 3.98382 9.5 3.98382ZM9.5 17.1612C7.25141 17.1612 5.23649 16.1423 3.8881 14.5487C4.60827 13.1927 6.01794 12.258 7.66129 12.258C7.75323 12.258 7.84516 12.2733 7.93327 12.3001C8.43125 12.461 8.95222 12.5645 9.5 12.5645C10.0478 12.5645 10.5726 12.461 11.0667 12.3001C11.1548 12.2733 11.2468 12.258 11.3387 12.258C12.9821 12.258 14.3917 13.1927 15.1119 14.5487C13.7635 16.1423 11.7486 17.1612 9.5 17.1612Z"
      fill="#C09DFB"
    />
</g>
<defs>
<clipPath id="clip0_13_33">
<rect width="19" height="19.6129" fill="white" />
</clipPath>
</defs>
</svg>
