<svg width="642" height="247" viewBox="0 0 642 247" fill="none" xmlns="http://www.w3.org/2000/svg">
<rect width="642" height="247" fill="#001D27"/>
<path d="M251.774 75.0703H261.467V84.7632H251.774V75.0703ZM261.467 75.0703H271.159V84.7632H261.467V75.0703ZM280.852 75.0703H290.545V84.7632H280.852V75.0703ZM290.545 75.0703H300.238V84.7632H290.545V75.0703ZM290.545 84.7632H300.238V94.4562H290.545V84.7632ZM290.545 94.4562H300.238V104.149H290.545V94.4562ZM300.238 94.4562H309.931V104.149H300.238V94.4562ZM300.238 84.7632H309.931V94.4562H300.238V84.7632ZM280.852 84.7632H290.545V94.4562H280.852V84.7632ZM261.467 84.7632H271.159V94.4562H261.467V84.7632ZM251.774 84.7632H261.467V94.4562H251.774V84.7632ZM242.081 84.7632H251.774V94.4562H242.081V84.7632ZM242.081 94.4562H251.774V104.149H242.081V94.4562ZM251.774 94.4562H261.467V104.149H251.774V94.4562ZM251.774 104.149H261.467V113.842H251.774V104.149ZM242.081 104.149H251.774V113.842H242.081V104.149ZM242.081 123.535H251.774V133.228H242.081V123.535ZM251.774 123.535H261.467V133.228H251.774V123.535ZM251.774 113.842H261.467V123.535H251.774V113.842ZM261.467 113.842H271.159V123.535H261.467V113.842ZM261.467 123.535H271.159V133.228H261.467V123.535ZM280.852 123.535H290.545V133.228H280.852V123.535ZM280.852 113.842H290.545V123.535H280.852V113.842ZM290.545 113.842H300.238V123.535H290.545V113.842ZM290.545 123.535H300.238V133.228H290.545V123.535ZM300.238 123.535H309.931V133.228H300.238V123.535ZM300.238 133.228H309.931V142.921H300.238V133.228ZM300.238 142.921H309.931V152.614H300.238V142.921ZM290.545 142.921H300.238V152.614H290.545V142.921ZM290.545 133.228H300.238V142.921H290.545V133.228ZM300.238 152.614H309.931V162.307H300.238V152.614ZM290.545 152.614H300.238V162.307H290.545V152.614ZM290.545 162.307H300.238V172H290.545V162.307ZM280.852 162.307H290.545V172H280.852V162.307ZM280.852 152.614H290.545V162.307H280.852V152.614ZM261.467 152.614H271.159V162.307H261.467V152.614ZM261.467 162.307H271.159V172H261.467V162.307ZM251.774 162.307H261.467V172H251.774V162.307ZM251.774 152.614H261.467V162.307H251.774V152.614ZM242.081 152.614H251.774V162.307H242.081V152.614ZM242.081 142.921H251.774V152.614H242.081V142.921ZM242.081 133.228H251.774V142.921H242.081V133.228ZM251.774 133.228H261.467V142.921H251.774V133.228ZM251.774 142.921H261.467V152.614H251.774V142.921ZM300.238 104.149H309.931V113.842H300.238V104.149ZM290.545 104.149H300.238V113.842H290.545V104.149ZM271.159 75.0703H280.852V84.7632H271.159V75.0703ZM271.159 84.7632H280.852V94.4562H271.159V84.7632ZM271.159 113.842H280.852V123.535H271.159V113.842ZM271.159 123.535H280.852V133.228H271.159V123.535ZM271.159 152.614H280.852V162.307H271.159V152.614ZM271.159 162.307H280.852V172H271.159V162.307ZM319.65 75.0703H329.343V84.7632H319.65V75.0703ZM329.343 75.0703H339.036V84.7632H329.343V75.0703ZM329.343 84.7632H339.036V94.4562H329.343V84.7632ZM329.343 94.4562H339.036V104.149H329.343V94.4562ZM329.343 104.149H339.036V113.842H329.343V104.149ZM329.343 113.842H339.036V123.535H329.343V113.842ZM329.343 123.535H339.036V133.228H329.343V123.535ZM319.65 123.535H329.343V133.228H319.65V123.535ZM319.65 133.228H329.343V142.921H319.65V133.228ZM319.65 142.921H329.343V152.614H319.65V142.921ZM319.65 152.614H329.343V162.307H319.65V152.614ZM319.65 162.307H329.343V172H319.65V162.307ZM329.343 162.307H339.036V172H329.343V162.307ZM329.343 152.614H339.036V162.307H329.343V152.614ZM329.343 142.921H339.036V152.614H329.343V142.921ZM329.343 133.228H339.036V142.921H329.343V133.228ZM319.65 113.842H329.343V123.535H319.65V113.842ZM319.65 104.149H329.343V113.842H319.65V104.149ZM319.65 94.4562H329.343V104.149H319.65V94.4562ZM319.65 84.7632H329.343V94.4562H319.65V84.7632ZM406.962 172H397.269V162.307H406.962V172ZM406.962 162.307H397.269V152.614H406.962V162.307ZM397.269 162.307H387.576V152.614H397.269V162.307ZM387.576 172H377.883V162.307H387.576V172ZM377.883 172H368.19V162.307H377.883V172ZM368.19 172H358.497V162.307H368.19V172ZM368.19 162.307H358.497V152.614H368.19V162.307ZM377.883 162.307H368.19V152.614H377.883V162.307ZM358.497 162.307H348.804V152.614H358.497V162.307ZM358.497 152.614H348.804V142.921H358.497V152.614ZM358.497 113.842H348.804V104.149H358.497V113.842ZM368.19 113.842H358.497V104.149H368.19V113.842ZM368.19 152.614H358.497V142.921H368.19V152.614ZM377.883 113.842H368.19V104.149H377.883V113.842ZM368.19 104.149H358.497V94.4562H368.19V104.149ZM377.883 104.149H368.19V94.4562H377.883V104.149ZM387.576 104.149H377.883V94.4562H387.576V104.149ZM397.269 104.149H387.576V94.4562H397.269V104.149ZM406.962 104.149H397.269V94.4562H406.962V104.149ZM406.962 113.842H397.269V104.149H406.962V113.842ZM397.269 113.842H387.576V104.149H397.269V113.842ZM406.962 123.535H397.269V113.842H406.962V123.535ZM416.655 113.842H406.962V104.149H416.655V113.842ZM416.655 123.535H406.962V113.842H416.655V123.535ZM416.655 133.228H406.962V123.535H416.655V133.228ZM416.655 142.921H406.962V133.228H416.655V142.921ZM416.655 152.614H406.962V142.921H416.655V152.614ZM416.655 162.307H406.962V152.614H416.655V162.307ZM406.962 152.614H397.269V142.921H406.962V152.614ZM406.962 142.921H397.269V133.228H406.962V142.921ZM406.962 133.228H397.269V123.535H406.962V133.228ZM387.576 113.842H377.883V104.149H387.576V113.842ZM387.576 162.307H377.883V152.614H387.576V162.307ZM406.962 162.307H416.655V172H406.962V162.307ZM387.576 123.535H397.269V133.228H387.576V123.535ZM377.883 123.535H387.576V133.228H377.883V123.535ZM368.19 123.535H377.883V133.228H368.19V123.535ZM358.497 123.535H368.19V133.228H358.497V123.535ZM348.804 133.228H358.497V142.921H348.804V133.228ZM358.497 133.228H368.19V142.921H358.497V133.228ZM387.576 133.228H397.269V142.921H387.576V133.228ZM377.883 133.228H387.576V142.921H377.883V133.228ZM368.19 133.228H377.883V142.921H368.19V133.228ZM426.373 104.149H436.066V113.842H426.373V104.149ZM426.373 94.4562H436.066V104.149H426.373V94.4562ZM436.066 94.4562H445.759V104.149H436.066V94.4562ZM436.066 104.149H445.759V113.842H436.066V104.149ZM436.066 113.842H445.759V123.535H436.066V113.842ZM436.066 123.535H445.759V133.228H436.066V123.535ZM436.066 133.228H445.759V142.921H436.066V133.228ZM426.373 133.228H436.066V142.921H426.373V133.228ZM426.373 123.535H436.066V133.228H426.373V123.535ZM426.373 113.842H436.066V123.535H426.373V113.842ZM426.373 142.921H436.066V152.614H426.373V142.921ZM436.066 142.921H445.759V152.614H436.066V142.921ZM436.066 152.614H445.759V162.307H436.066V152.614ZM436.066 162.307H445.759V172H436.066V162.307ZM426.373 162.307H436.066V172H426.373V162.307ZM426.373 152.614H436.066V162.307H426.373V152.614ZM474.838 162.307H484.531V172H474.838V162.307ZM484.531 152.614H494.224V162.307H484.531V152.614ZM484.531 142.921H494.224V152.614H484.531V142.921ZM484.531 133.228H494.224V142.921H484.531V133.228ZM484.531 123.535H494.224V133.228H484.531V123.535ZM484.531 113.842H494.224V123.535H484.531V113.842ZM484.531 104.149H494.224V113.842H484.531V104.149ZM474.838 123.535H484.531V133.228H474.838V123.535ZM474.838 133.228H484.531V142.921H474.838V133.228ZM474.838 142.921H484.531V152.614H474.838V142.921ZM474.838 152.614H484.531V162.307H474.838V152.614ZM474.838 113.842H484.531V123.535H474.838V113.842ZM445.759 104.149H455.452V113.842H445.759V104.149ZM455.452 104.149H465.145V113.842H455.452V104.149ZM465.145 104.149H474.838V113.842H465.145V104.149ZM465.145 94.4562H474.838V104.149H465.145V94.4562ZM474.838 94.4562H484.531V104.149H474.838V94.4562ZM474.838 104.149H484.531V113.842H474.838V104.149ZM455.452 94.4562H465.145V104.149H455.452V94.4562ZM426.373 75.0703H436.066V84.7632H426.373V75.0703ZM436.066 75.0703H445.759V84.7632H436.066V75.0703ZM436.066 84.7632H445.759V94.4562H436.066V84.7632ZM426.373 84.7632H436.066V94.4562H426.373V84.7632ZM445.759 162.307H455.452V172H445.759V162.307ZM455.452 162.307H465.145V172H455.452V162.307ZM465.145 162.307H474.838V172H465.145V162.307ZM465.145 152.614H474.838V162.307H465.145V152.614ZM455.452 152.614H465.145V162.307H455.452V152.614ZM445.759 152.614H455.452V162.307H445.759V152.614ZM503.942 104.149H513.635V113.842H503.942V104.149ZM513.635 113.842H523.328V123.535H513.635V113.842ZM503.942 113.842H513.635V123.535H503.942V113.842ZM503.942 123.535H513.635V133.228H503.942V123.535ZM513.635 123.535H523.328V133.228H513.635V123.535ZM513.635 133.228H523.328V142.921H513.635V133.228ZM523.328 133.228H533.021V142.921H523.328V133.228ZM533.021 133.228H542.714V142.921H533.021V133.228ZM542.714 123.535H552.407V133.228H542.714V123.535ZM533.021 123.535H542.714V133.228H533.021V123.535ZM523.328 123.535H533.021V133.228H523.328V123.535ZM542.714 133.228H552.407V142.921H542.714V133.228ZM552.407 133.228H562.1V142.921H552.407V133.228ZM552.407 142.921H562.1V152.614H552.407V142.921ZM542.714 142.921H552.407V152.614H542.714V142.921ZM542.714 152.614H552.407V162.307H542.714V152.614ZM552.407 152.614H562.1V162.307H552.407V152.614ZM542.714 162.307H552.407V172H542.714V162.307ZM533.021 152.614H542.714V162.307H533.021V152.614ZM523.328 152.614H533.021V162.307H523.328V152.614ZM513.635 152.614H523.328V162.307H513.635V152.614ZM503.942 152.614H513.635V162.307H503.942V152.614ZM513.635 162.307H523.328V172H513.635V162.307ZM523.328 162.307H533.021V172H523.328V162.307ZM533.021 162.307H542.714V172H533.021V162.307ZM552.407 104.149H562.1V113.842H552.407V104.149ZM542.714 104.149H552.407V113.842H542.714V104.149ZM542.714 94.4562H552.407V104.149H542.714V94.4562ZM533.021 94.4562H542.714V104.149H533.021V94.4562ZM523.328 94.4562H533.021V104.149H523.328V94.4562ZM513.635 94.4562H523.328V104.149H513.635V94.4562ZM513.635 104.149H523.328V113.842H513.635V104.149ZM523.328 104.149H533.021V113.842H523.328V104.149ZM533.021 104.149H542.714V113.842H533.021V104.149Z" fill="#00BFD3"/>
<rect x="70" y="126.968" width="5.16129" height="5.16129" fill="#18808B"/>
<rect x="70" y="121.807" width="5.16129" height="5.16129" fill="#18808B"/>
<rect x="70" y="116.645" width="5.16129" height="5.16129" fill="#18808B"/>
<rect x="70" y="111.484" width="5.16129" height="5.16129" fill="#18808B"/>
<rect x="70" y="106.323" width="5.16129" height="5.16129" fill="#18808B"/>
<rect x="70" y="101.161" width="5.16129" height="5.16129" fill="#18808B"/>
<rect x="70" y="96" width="5.16129" height="5.16129" fill="#18808B"/>
<rect x="70" y="90.8387" width="5.16129" height="5.16129" fill="#18808B"/>
<rect x="70" y="85.6775" width="5.16129" height="5.16129" fill="#18808B"/>
<rect x="70" y="80.5161" width="5.16129" height="5.16129" fill="#18808B"/>
<rect x="70" y="75.3549" width="5.16129" height="5.16129" fill="#18808B"/>
<rect x="70" y="70.1936" width="5.16129" height="5.16129" fill="#18808B"/>
<rect x="70" y="65.0322" width="5.16129" height="5.16129" fill="#18808B"/>
<rect x="70" y="59.871" width="5.16129" height="5.16129" fill="#18808B"/>
<rect x="70" y="132.129" width="5.16129" height="5.16129" fill="#18808B"/>
<rect x="70" y="137.29" width="5.16129" height="5.16129" fill="#18808B"/>
<rect x="70" y="142.452" width="5.16129" height="5.16129" fill="#18808B"/>
<rect x="70" y="147.613" width="5.16129" height="5.16129" fill="#18808B"/>
<rect x="70" y="152.774" width="5.16129" height="5.16129" fill="#18808B"/>
<rect x="70" y="157.935" width="5.16129" height="5.16129" fill="#18808B"/>
<rect x="70" y="163.097" width="5.16129" height="5.16129" fill="#18808B"/>
<rect x="70" y="168.258" width="5.16129" height="5.16129" fill="#18808B"/>
<rect x="70" y="173.419" width="5.16129" height="5.16129" fill="#18808B"/>
<rect x="70" y="178.581" width="5.16129" height="5.16129" fill="#18808B"/>
<rect x="142.258" y="126.968" width="5.16129" height="5.16129" fill="#18808B"/>
<rect x="142.258" y="121.807" width="5.16129" height="5.16129" fill="#18808B"/>
<rect x="142.258" y="116.645" width="5.16129" height="5.16129" fill="#18808B"/>
<rect x="142.258" y="111.484" width="5.16129" height="5.16129" fill="#18808B"/>
<rect x="142.258" y="106.323" width="5.16129" height="5.16129" fill="#18808B"/>
<rect x="142.258" y="101.161" width="5.16129" height="5.16129" fill="#18808B"/>
<rect x="142.258" y="96" width="5.16129" height="5.16129" fill="#18808B"/>
<rect x="142.258" y="90.8387" width="5.16129" height="5.16129" fill="#18808B"/>
<rect x="142.258" y="85.6775" width="5.16129" height="5.16129" fill="#18808B"/>
<rect x="142.258" y="80.5161" width="5.16129" height="5.16129" fill="#18808B"/>
<rect x="142.258" y="75.3549" width="5.16129" height="5.16129" fill="#18808B"/>
<rect x="142.258" y="70.1936" width="5.16129" height="5.16129" fill="#18808B"/>
<rect x="142.258" y="65.0322" width="5.16129" height="5.16129" fill="#18808B"/>
<rect x="142.258" y="59.871" width="5.16129" height="5.16129" fill="#18808B"/>
<rect x="142.258" y="132.129" width="5.16129" height="5.16129" fill="#18808B"/>
<rect x="142.258" y="137.29" width="5.16129" height="5.16129" fill="#18808B"/>
<rect x="142.258" y="142.452" width="5.16129" height="5.16129" fill="#18808B"/>
<rect x="142.258" y="147.613" width="5.16129" height="5.16129" fill="#18808B"/>
<rect x="142.258" y="152.774" width="5.16129" height="5.16129" fill="#18808B"/>
<rect x="142.258" y="157.935" width="5.16129" height="5.16129" fill="#18808B"/>
<rect x="142.258" y="163.097" width="5.16129" height="5.16129" fill="#18808B"/>
<rect x="142.258" y="168.258" width="5.16129" height="5.16129" fill="#18808B"/>
<rect x="142.258" y="173.419" width="5.16129" height="5.16129" fill="#18808B"/>
<rect x="142.258" y="178.581" width="5.16129" height="5.16129" fill="#18808B"/>
<rect x="75.1611" y="178.581" width="5.16129" height="5.16129" fill="#18808B"/>
<rect x="75.1611" y="183.742" width="5.16129" height="5.16129" fill="#18808B"/>
<rect x="80.3223" y="183.742" width="5.16129" height="5.16129" fill="#18808B"/>
<rect x="80.3223" y="188.903" width="5.16129" height="5.16129" fill="#18808B"/>
<rect x="85.4839" y="188.903" width="5.16129" height="5.16129" fill="#18808B"/>
<rect x="85.4839" y="194.064" width="5.16129" height="5.16129" fill="#18808B"/>
<rect x="90.645" y="194.064" width="5.16129" height="5.16129" fill="#18808B"/>
<rect x="95.8066" y="194.064" width="5.16129" height="5.16129" fill="#18808B"/>
<rect x="95.8066" y="199.226" width="5.16129" height="5.16129" fill="#18808B"/>
<rect x="100.968" y="194.064" width="5.16129" height="5.16129" fill="#18808B"/>
<rect x="106.129" y="194.064" width="5.16129" height="5.16129" fill="#18808B"/>
<rect x="100.968" y="199.226" width="5.16129" height="5.16129" fill="#18808B"/>
<rect x="106.129" y="199.226" width="5.16129" height="5.16129" fill="#18808B"/>
<rect x="126.774" y="194.064" width="5.16129" height="5.16129" fill="#18808B"/>
<rect x="111.291" y="199.226" width="5.16129" height="5.16129" fill="#18808B"/>
<rect x="116.452" y="199.226" width="5.16129" height="5.16129" fill="#18808B"/>
<rect x="111.291" y="194.064" width="5.16129" height="5.16129" fill="#18808B"/>
<rect x="137.097" y="178.581" width="5.16129" height="5.16129" fill="#18808B"/>
<rect x="137.097" y="183.742" width="5.16129" height="5.16129" fill="#18808B"/>
<rect x="131.936" y="183.742" width="5.16129" height="5.16129" fill="#18808B"/>
<rect x="131.936" y="188.903" width="5.16129" height="5.16129" fill="#18808B"/>
<rect x="126.774" y="188.903" width="5.16129" height="5.16129" fill="#18808B"/>
<rect x="116.452" y="194.064" width="5.16129" height="5.16129" fill="#18808B"/>
<rect x="121.613" y="194.064" width="5.16129" height="5.16129" fill="#18808B"/>
<rect x="75.1611" y="59.871" width="5.16129" height="5.16129" fill="#18808B"/>
<rect x="80.3223" y="65.0322" width="5.16129" height="5.16129" fill="#18808B"/>
<rect x="85.4839" y="65.0322" width="5.16129" height="5.16129" fill="#18808B"/>
<rect x="90.645" y="70.1936" width="5.16129" height="5.16129" fill="#18808B"/>
<rect x="95.8066" y="70.1936" width="5.16129" height="5.16129" fill="#18808B"/>
<rect x="100.968" y="70.1936" width="5.16129" height="5.16129" fill="#18808B"/>
<rect x="137.097" y="59.871" width="5.16129" height="5.16129" fill="#18808B"/>
<rect x="131.936" y="65.0322" width="5.16129" height="5.16129" fill="#18808B"/>
<rect x="121.613" y="70.1936" width="5.16129" height="5.16129" fill="#18808B"/>
<rect x="126.774" y="65.0322" width="5.16129" height="5.16129" fill="#18808B"/>
<rect x="116.452" y="70.1936" width="5.16129" height="5.16129" fill="#18808B"/>
<rect x="111.291" y="70.1936" width="5.16129" height="5.16129" fill="#18808B"/>
<rect x="106.129" y="70.1936" width="5.16129" height="5.16129" fill="#18808B"/>
<rect width="5.16129" height="5.16129" transform="matrix(1 0 0 -1 75.1611 59.871)" fill="#18808B"/>
<rect width="5.16129" height="5.16129" transform="matrix(1 0 0 -1 80.3223 54.7097)" fill="#18808B"/>
<rect width="5.16129" height="5.16129" transform="matrix(1 0 0 -1 85.4839 54.7097)" fill="#18808B"/>
<rect width="5.16129" height="5.16129" transform="matrix(1 0 0 -1 90.645 49.5485)" fill="#18808B"/>
<rect width="5.16129" height="5.16129" transform="matrix(1 0 0 -1 95.8066 49.5485)" fill="#18808B"/>
<rect width="5.16129" height="5.16129" transform="matrix(1 0 0 -1 100.968 49.5485)" fill="#18808B"/>
<rect width="5.16129" height="5.16129" transform="matrix(1 0 0 -1 137.097 59.871)" fill="#18808B"/>
<rect width="5.16129" height="5.16129" transform="matrix(1 0 0 -1 131.936 54.7097)" fill="#18808B"/>
<rect width="5.16129" height="5.16129" transform="matrix(1 0 0 -1 121.613 49.5485)" fill="#18808B"/>
<rect width="5.16129" height="5.16129" transform="matrix(1 0 0 -1 126.774 54.7097)" fill="#18808B"/>
<rect width="5.16129" height="5.16129" transform="matrix(1 0 0 -1 116.452 49.5485)" fill="#18808B"/>
<rect width="5.16129" height="5.16129" transform="matrix(1 0 0 -1 111.291 49.5485)" fill="#18808B"/>
<rect width="5.16129" height="5.16129" transform="matrix(1 0 0 -1 106.129 49.5485)" fill="#18808B"/>
<rect x="75.1611" y="65.0323" width="5.16129" height="5.16129" fill="white" fill-opacity="0.21"/>
<rect x="80.3223" y="70.1936" width="5.16129" height="5.16129" fill="white" fill-opacity="0.21"/>
<rect x="85.4839" y="70.1936" width="5.16129" height="5.16129" fill="white" fill-opacity="0.21"/>
<rect x="90.645" y="75.3549" width="5.16129" height="5.16129" fill="white" fill-opacity="0.21"/>
<rect x="95.8066" y="75.3549" width="5.16129" height="5.16129" fill="white" fill-opacity="0.21"/>
<rect x="100.968" y="75.3549" width="5.16129" height="5.16129" fill="white" fill-opacity="0.21"/>
<rect x="106.129" y="75.3549" width="5.16129" height="5.16129" fill="white" fill-opacity="0.21"/>
<rect x="111.291" y="75.3549" width="5.16129" height="5.16129" fill="white" fill-opacity="0.21"/>
<rect x="116.452" y="75.3549" width="5.16129" height="5.16129" fill="white" fill-opacity="0.21"/>
<rect x="121.613" y="75.3549" width="5.16129" height="5.16129" fill="white" fill-opacity="0.21"/>
<rect x="126.774" y="70.1936" width="5.16129" height="5.16129" fill="white" fill-opacity="0.21"/>
<rect x="131.936" y="70.1936" width="5.16129" height="5.16129" fill="white" fill-opacity="0.21"/>
<rect x="137.097" y="65.0323" width="5.16129" height="5.16129" fill="white" fill-opacity="0.21"/>
<rect x="80.3223" y="54.7097" width="5.16129" height="5.16129" fill="white" fill-opacity="0.21"/>
<rect x="85.4834" y="54.7097" width="5.16129" height="5.16129" fill="white" fill-opacity="0.21"/>
<rect x="90.645" y="49.5485" width="5.16129" height="5.16129" fill="white" fill-opacity="0.21"/>
<rect x="95.8062" y="49.5485" width="5.16129" height="5.16129" fill="white" fill-opacity="0.21"/>
<rect x="100.968" y="49.5485" width="5.16129" height="5.16129" fill="white" fill-opacity="0.21"/>
<rect x="121.613" y="49.5485" width="5.16129" height="5.16129" fill="white" fill-opacity="0.21"/>
<rect x="131.936" y="54.7097" width="5.16129" height="5.16129" fill="white" fill-opacity="0.21"/>
<rect x="126.774" y="54.7097" width="5.16129" height="5.16129" fill="white" fill-opacity="0.21"/>
<rect x="116.452" y="49.5485" width="5.16129" height="5.16129" fill="white" fill-opacity="0.21"/>
<rect x="111.29" y="49.5485" width="5.16129" height="5.16129" fill="white" fill-opacity="0.21"/>
<rect x="106.129" y="49.5485" width="5.16129" height="5.16129" fill="white" fill-opacity="0.21"/>
<path d="M87.4189 130.839H97.7415V136H102.903V141.161H108.064V136H113.225V130.839H128.709V172.452H123.871V177.29H118.709V182.452H97.7415V177.29H92.5802V172.452H87.4189V130.839Z" fill="#00BFD3"/>
<path d="M133.871 177.291H128.71V182.452H123.549V187.613H92.5811V177.291H97.7422V182.452H118.387V177.291H123.548V172.129H128.709V141.162H133.871V177.291ZM92.5801 146.323H87.4189V172.129H92.5801V182.452H87.4189V177.291H82.2578V141.162H92.5801V146.323ZM102.903 146.323H97.7422V151.484H92.5811V141.162H102.903V146.323ZM87.4189 141.161H82.2578V130.839H87.4189V141.161ZM108.064 141.161H102.903V136H108.064V141.161ZM128.71 130.839H133.871V141.161H128.709V136H123.548V130.839H113.226V125.677H128.71V130.839ZM102.903 136H97.7422V130.839H102.903V136ZM113.226 136H108.064V130.839H113.226V136ZM92.5801 130.839H87.4189V125.677H92.5801V130.839ZM97.7422 130.839H92.5811V125.677H97.7422V130.839Z" fill="#006081"/>
<rect x="102.903" y="141.161" width="5.16129" height="5.16129" fill="#006081"/>
<rect x="108.064" y="136" width="5.16129" height="5.16129" fill="#006081"/>
<rect x="97.7417" y="146.323" width="5.16129" height="5.16129" fill="#006081"/>
</svg>
